G04 Layer: BottomPasteMaskLayer*
G04 EasyEDA v6.3.43, 2020-06-04T01:39:48+01:00*
G04 c5e8e4d559e34370b9c9d94393fceecd,c23c5ad5fcdd482d9714491510f6a4f3,10*
G04 Gerber Generator version 0.2*
G04 Scale: 100 percent, Rotated: No, Reflected: No *
G04 Dimensions in millimeters *
G04 leading zeros omitted , absolute positions ,3 integer and 3 decimal *
%FSLAX33Y33*%
%MOMM*%
G90*
G71D02*


%LPD*%
G36*
G01X155003Y2711D02*
G01X155003Y44D01*
G01X152336Y44D01*
G01X152336Y933D01*
G01X154114Y933D01*
G01X154114Y2711D01*
G01X155003Y2711D01*
G37*
G36*
G01X2730Y44D02*
G01X63Y44D01*
G01X63Y2711D01*
G01X952Y2711D01*
G01X952Y933D01*
G01X2730Y933D01*
G01X2730Y44D01*
G37*
G36*
G01X84530Y18632D02*
G01X85331Y18632D01*
G01X85331Y18881D01*
G01X84530Y18881D01*
G01X84530Y18632D01*
G37*
G36*
G01X84530Y18132D02*
G01X85331Y18132D01*
G01X85331Y18382D01*
G01X84530Y18382D01*
G01X84530Y18132D01*
G37*
G36*
G01X84530Y17632D02*
G01X85331Y17632D01*
G01X85331Y17881D01*
G01X84530Y17881D01*
G01X84530Y17632D01*
G37*
G36*
G01X84530Y17132D02*
G01X85331Y17132D01*
G01X85331Y17382D01*
G01X84530Y17382D01*
G01X84530Y17132D01*
G37*
G36*
G01X84530Y16632D02*
G01X85331Y16632D01*
G01X85331Y16881D01*
G01X84530Y16881D01*
G01X84530Y16632D01*
G37*
G36*
G01X84530Y16132D02*
G01X85331Y16132D01*
G01X85331Y16382D01*
G01X84530Y16382D01*
G01X84530Y16132D01*
G37*
G36*
G01X84305Y15107D02*
G01X84305Y15907D01*
G01X84055Y15907D01*
G01X84055Y15107D01*
G01X84305Y15107D01*
G37*
G36*
G01X83806Y15107D02*
G01X83806Y15907D01*
G01X83556Y15907D01*
G01X83556Y15107D01*
G01X83806Y15107D01*
G37*
G36*
G01X83305Y15107D02*
G01X83305Y15907D01*
G01X83055Y15907D01*
G01X83055Y15107D01*
G01X83305Y15107D01*
G37*
G36*
G01X82806Y15107D02*
G01X82806Y15907D01*
G01X82556Y15907D01*
G01X82556Y15107D01*
G01X82806Y15107D01*
G37*
G36*
G01X82305Y15107D02*
G01X82305Y15907D01*
G01X82055Y15907D01*
G01X82055Y15107D01*
G01X82305Y15107D01*
G37*
G36*
G01X81806Y15107D02*
G01X81806Y15907D01*
G01X81556Y15907D01*
G01X81556Y15107D01*
G01X81806Y15107D01*
G37*
G36*
G01X81331Y16382D02*
G01X80530Y16382D01*
G01X80530Y16132D01*
G01X81331Y16132D01*
G01X81331Y16382D01*
G37*
G36*
G01X81331Y16881D02*
G01X80530Y16881D01*
G01X80530Y16632D01*
G01X81331Y16632D01*
G01X81331Y16881D01*
G37*
G36*
G01X81331Y17382D02*
G01X80530Y17382D01*
G01X80530Y17132D01*
G01X81331Y17132D01*
G01X81331Y17382D01*
G37*
G36*
G01X81331Y17881D02*
G01X80530Y17881D01*
G01X80530Y17632D01*
G01X81331Y17632D01*
G01X81331Y17881D01*
G37*
G36*
G01X81331Y18382D02*
G01X80530Y18382D01*
G01X80530Y18132D01*
G01X81331Y18132D01*
G01X81331Y18382D01*
G37*
G36*
G01X81331Y18881D02*
G01X80530Y18881D01*
G01X80530Y18632D01*
G01X81331Y18632D01*
G01X81331Y18881D01*
G37*
G36*
G01X81556Y19907D02*
G01X81556Y19106D01*
G01X81806Y19106D01*
G01X81806Y19907D01*
G01X81556Y19907D01*
G37*
G36*
G01X82055Y19907D02*
G01X82055Y19106D01*
G01X82305Y19106D01*
G01X82305Y19907D01*
G01X82055Y19907D01*
G37*
G36*
G01X82556Y19907D02*
G01X82556Y19106D01*
G01X82806Y19106D01*
G01X82806Y19907D01*
G01X82556Y19907D01*
G37*
G36*
G01X83055Y19907D02*
G01X83055Y19106D01*
G01X83305Y19106D01*
G01X83305Y19907D01*
G01X83055Y19907D01*
G37*
G36*
G01X83556Y19907D02*
G01X83556Y19106D01*
G01X83806Y19106D01*
G01X83806Y19907D01*
G01X83556Y19907D01*
G37*
G36*
G01X84055Y19907D02*
G01X84055Y19106D01*
G01X84305Y19106D01*
G01X84305Y19907D01*
G01X84055Y19907D01*
G37*
G36*
G01X103004Y18622D02*
G01X101861Y18622D01*
G01X101861Y18368D01*
G01X103004Y18368D01*
G01X103004Y18622D01*
G37*
G36*
G01X103004Y18121D02*
G01X101861Y18121D01*
G01X101861Y17867D01*
G01X103004Y17867D01*
G01X103004Y18121D01*
G37*
G36*
G01X103004Y17622D02*
G01X101861Y17622D01*
G01X101861Y17368D01*
G01X103004Y17368D01*
G01X103004Y17622D01*
G37*
G36*
G01X103004Y17121D02*
G01X101861Y17121D01*
G01X101861Y16867D01*
G01X103004Y16867D01*
G01X103004Y17121D01*
G37*
G36*
G01X103004Y16622D02*
G01X101861Y16622D01*
G01X101861Y16368D01*
G01X103004Y16368D01*
G01X103004Y16622D01*
G37*
G36*
G01X103004Y16121D02*
G01X101861Y16121D01*
G01X101861Y15867D01*
G01X103004Y15867D01*
G01X103004Y16121D01*
G37*
G36*
G01X103004Y15622D02*
G01X101861Y15622D01*
G01X101861Y15368D01*
G01X103004Y15368D01*
G01X103004Y15622D01*
G37*
G36*
G01X103004Y15121D02*
G01X101861Y15121D01*
G01X101861Y14867D01*
G01X103004Y14867D01*
G01X103004Y15121D01*
G37*
G36*
G01X100810Y12673D02*
G01X100810Y13816D01*
G01X100556Y13816D01*
G01X100556Y12673D01*
G01X100810Y12673D01*
G37*
G36*
G01X100309Y12673D02*
G01X100309Y13816D01*
G01X100055Y13816D01*
G01X100055Y12673D01*
G01X100309Y12673D01*
G37*
G36*
G01X99810Y12673D02*
G01X99810Y13816D01*
G01X99556Y13816D01*
G01X99556Y12673D01*
G01X99810Y12673D01*
G37*
G36*
G01X99309Y12673D02*
G01X99309Y13816D01*
G01X99055Y13816D01*
G01X99055Y12673D01*
G01X99309Y12673D01*
G37*
G36*
G01X98810Y12673D02*
G01X98810Y13816D01*
G01X98556Y13816D01*
G01X98556Y12673D01*
G01X98810Y12673D01*
G37*
G36*
G01X98309Y12673D02*
G01X98309Y13816D01*
G01X98055Y13816D01*
G01X98055Y12673D01*
G01X98309Y12673D01*
G37*
G36*
G01X97810Y12673D02*
G01X97810Y13816D01*
G01X97556Y13816D01*
G01X97556Y12673D01*
G01X97810Y12673D01*
G37*
G36*
G01X97309Y12673D02*
G01X97309Y13816D01*
G01X97055Y13816D01*
G01X97055Y12673D01*
G01X97309Y12673D01*
G37*
G36*
G01X94861Y14867D02*
G01X96004Y14867D01*
G01X96004Y15121D01*
G01X94861Y15121D01*
G01X94861Y14867D01*
G37*
G36*
G01X94861Y15368D02*
G01X96004Y15368D01*
G01X96004Y15622D01*
G01X94861Y15622D01*
G01X94861Y15368D01*
G37*
G36*
G01X94861Y15867D02*
G01X96004Y15867D01*
G01X96004Y16121D01*
G01X94861Y16121D01*
G01X94861Y15867D01*
G37*
G36*
G01X94861Y16368D02*
G01X96004Y16368D01*
G01X96004Y16622D01*
G01X94861Y16622D01*
G01X94861Y16368D01*
G37*
G36*
G01X94861Y16867D02*
G01X96004Y16867D01*
G01X96004Y17121D01*
G01X94861Y17121D01*
G01X94861Y16867D01*
G37*
G36*
G01X94861Y17368D02*
G01X96004Y17368D01*
G01X96004Y17622D01*
G01X94861Y17622D01*
G01X94861Y17368D01*
G37*
G36*
G01X94861Y17867D02*
G01X96004Y17867D01*
G01X96004Y18121D01*
G01X94861Y18121D01*
G01X94861Y17867D01*
G37*
G36*
G01X94861Y18368D02*
G01X96004Y18368D01*
G01X96004Y18622D01*
G01X94861Y18622D01*
G01X94861Y18368D01*
G37*
G36*
G01X97055Y20816D02*
G01X97055Y19673D01*
G01X97309Y19673D01*
G01X97309Y20816D01*
G01X97055Y20816D01*
G37*
G36*
G01X97556Y20816D02*
G01X97556Y19673D01*
G01X97810Y19673D01*
G01X97810Y20816D01*
G01X97556Y20816D01*
G37*
G36*
G01X98055Y20816D02*
G01X98055Y19673D01*
G01X98309Y19673D01*
G01X98309Y20816D01*
G01X98055Y20816D01*
G37*
G36*
G01X98556Y20816D02*
G01X98556Y19673D01*
G01X98810Y19673D01*
G01X98810Y20816D01*
G01X98556Y20816D01*
G37*
G36*
G01X99055Y20816D02*
G01X99055Y19673D01*
G01X99309Y19673D01*
G01X99309Y20816D01*
G01X99055Y20816D01*
G37*
G36*
G01X99556Y20816D02*
G01X99556Y19673D01*
G01X99810Y19673D01*
G01X99810Y20816D01*
G01X99556Y20816D01*
G37*
G36*
G01X100055Y20816D02*
G01X100055Y19673D01*
G01X100309Y19673D01*
G01X100309Y20816D01*
G01X100055Y20816D01*
G37*
G36*
G01X100556Y20816D02*
G01X100556Y19673D01*
G01X100810Y19673D01*
G01X100810Y20816D01*
G01X100556Y20816D01*
G37*
G36*
G01X77353Y16751D02*
G01X76773Y16751D01*
G01X76773Y15551D01*
G01X77353Y15551D01*
G01X77353Y16751D01*
G37*
G36*
G01X75853Y16751D02*
G01X75273Y16751D01*
G01X75273Y15551D01*
G01X75853Y15551D01*
G01X75853Y16751D01*
G37*
G36*
G01X74353Y16751D02*
G01X73773Y16751D01*
G01X73773Y15551D01*
G01X74353Y15551D01*
G01X74353Y16751D01*
G37*
G36*
G01X76563Y20251D02*
G01X74563Y20251D01*
G01X74563Y18251D01*
G01X76563Y18251D01*
G01X76563Y20251D01*
G37*
G36*
G01X151974Y6773D02*
G01X151424Y6773D01*
G01X151424Y5573D01*
G01X151974Y5573D01*
G01X151974Y6773D01*
G37*
G36*
G01X151024Y6773D02*
G01X150474Y6773D01*
G01X150474Y5573D01*
G01X151024Y5573D01*
G01X151024Y6773D01*
G37*
G36*
G01X150074Y6773D02*
G01X149524Y6773D01*
G01X149524Y5573D01*
G01X150074Y5573D01*
G01X150074Y6773D01*
G37*
G36*
G01X150074Y9374D02*
G01X149524Y9374D01*
G01X149524Y8174D01*
G01X150074Y8174D01*
G01X150074Y9374D01*
G37*
G36*
G01X151974Y9374D02*
G01X151424Y9374D01*
G01X151424Y8174D01*
G01X151974Y8174D01*
G01X151974Y9374D01*
G37*
G36*
G01X151148Y13659D02*
G01X150348Y13659D01*
G01X150348Y12759D01*
G01X151148Y12759D01*
G01X151148Y13659D01*
G37*
G36*
G01X150198Y11559D02*
G01X149398Y11559D01*
G01X149398Y10659D01*
G01X150198Y10659D01*
G01X150198Y11559D01*
G37*
G36*
G01X152097Y11559D02*
G01X151298Y11559D01*
G01X151298Y10659D01*
G01X152097Y10659D01*
G01X152097Y11559D01*
G37*
G36*
G01X151599Y2705D02*
G01X151199Y2705D01*
G01X151199Y1956D01*
G01X151599Y1956D01*
G01X151599Y2705D01*
G37*
G36*
G01X150949Y2705D02*
G01X150549Y2705D01*
G01X150549Y1956D01*
G01X150949Y1956D01*
G01X150949Y2705D01*
G37*
G36*
G01X150299Y2705D02*
G01X149899Y2705D01*
G01X149899Y1956D01*
G01X150299Y1956D01*
G01X150299Y2705D01*
G37*
G36*
G01X150299Y4355D02*
G01X149899Y4355D01*
G01X149899Y3606D01*
G01X150299Y3606D01*
G01X150299Y4355D01*
G37*
G36*
G01X151599Y4355D02*
G01X151199Y4355D01*
G01X151199Y3606D01*
G01X151599Y3606D01*
G01X151599Y4355D01*
G37*
G36*
G01X104924Y7090D02*
G01X104924Y7390D01*
G01X104625Y7390D01*
G01X104625Y7090D01*
G01X104924Y7090D01*
G37*
G36*
G01X104924Y7690D02*
G01X104924Y7990D01*
G01X104625Y7990D01*
G01X104625Y7690D01*
G01X104924Y7690D01*
G37*
G36*
G01X107868Y6670D02*
G01X107868Y7170D01*
G01X107269Y7170D01*
G01X107269Y6670D01*
G01X107868Y6670D01*
G37*
G36*
G01X107868Y7670D02*
G01X107868Y8170D01*
G01X107269Y8170D01*
G01X107269Y7670D01*
G01X107868Y7670D01*
G37*
G36*
G01X110559Y6004D02*
G01X110559Y6604D01*
G01X109659Y6604D01*
G01X109659Y6004D01*
G01X110559Y6004D01*
G37*
G36*
G01X110559Y7504D02*
G01X110559Y8104D01*
G01X109659Y8104D01*
G01X109659Y7504D01*
G01X110559Y7504D01*
G37*
G36*
G01X113584Y4055D02*
G01X113584Y5255D01*
G01X112285Y5255D01*
G01X112285Y4055D01*
G01X113584Y4055D01*
G37*
G36*
G01X113584Y6155D02*
G01X113584Y7355D01*
G01X112285Y7355D01*
G01X112285Y6155D01*
G01X113584Y6155D01*
G37*
G36*
G01X115690Y3551D02*
G01X115690Y4451D01*
G01X114090Y4451D01*
G01X114090Y3551D01*
G01X115690Y3551D01*
G37*
G36*
G01X115690Y6451D02*
G01X115690Y7351D01*
G01X114090Y7351D01*
G01X114090Y6451D01*
G01X115690Y6451D01*
G37*
G36*
G01X116208Y7350D02*
G01X116208Y6350D01*
G01X119008Y6350D01*
G01X119008Y7350D01*
G01X116208Y7350D01*
G37*
G36*
G01X116208Y4350D02*
G01X116208Y3350D01*
G01X119008Y3350D01*
G01X119008Y4350D01*
G01X116208Y4350D01*
G37*
G36*
G01X119535Y1762D02*
G01X122336Y1762D01*
G01X122336Y2762D01*
G01X119535Y2762D01*
G01X119535Y1762D01*
G37*
G36*
G01X119535Y6362D02*
G01X122336Y6362D01*
G01X122336Y7362D01*
G01X119535Y7362D01*
G01X119535Y6362D01*
G37*
G36*
G01X125948Y2045D02*
G01X125948Y2844D01*
G01X124749Y2844D01*
G01X124749Y2045D01*
G01X125948Y2045D01*
G37*
G36*
G01X125948Y3644D02*
G01X125948Y4444D01*
G01X124749Y4444D01*
G01X124749Y3644D01*
G01X125948Y3644D01*
G37*
G36*
G01X123746Y1785D02*
G01X123746Y2135D01*
G01X123395Y2135D01*
G01X123395Y1785D01*
G01X123746Y1785D01*
G37*
G36*
G01X123746Y3135D02*
G01X123746Y3485D01*
G01X123395Y3485D01*
G01X123395Y3135D01*
G01X123746Y3135D01*
G37*
G36*
G01X135920Y6103D02*
G01X135920Y7373D01*
G01X134450Y7373D01*
G01X134450Y6103D01*
G01X135920Y6103D01*
G37*
G36*
G01X134450Y3073D02*
G01X134450Y1803D01*
G01X135920Y1803D01*
G01X135920Y3073D01*
G01X134450Y3073D01*
G37*
G36*
G01X140297Y1797D02*
G01X140297Y4198D01*
G01X137896Y4198D01*
G01X137896Y1797D01*
G01X140297Y1797D01*
G37*
G36*
G01X140297Y6197D02*
G01X140297Y8597D01*
G01X137896Y8597D01*
G01X137896Y6197D01*
G01X140297Y6197D01*
G37*
G36*
G01X146553Y1738D02*
G01X146553Y4539D01*
G01X142753Y4539D01*
G01X142753Y1738D01*
G01X146553Y1738D01*
G37*
G36*
G01X146553Y9138D02*
G01X146553Y11939D01*
G01X142753Y11939D01*
G01X142753Y9138D01*
G01X146553Y9138D01*
G37*
G36*
G01X130934Y7615D02*
G01X130934Y6215D01*
G01X133035Y6215D01*
G01X133035Y7615D01*
G01X130934Y7615D01*
G37*
G36*
G01X130934Y3215D02*
G01X130934Y1815D01*
G01X133035Y1815D01*
G01X133035Y3215D01*
G01X130934Y3215D01*
G37*
G36*
G01X126743Y4707D02*
G01X126743Y4077D01*
G01X127574Y4077D01*
G01X127574Y4707D01*
G01X126743Y4707D01*
G37*
G36*
G01X126743Y2407D02*
G01X126743Y1777D01*
G01X127574Y1777D01*
G01X127574Y2407D01*
G01X126743Y2407D01*
G37*
G36*
G01X130091Y1781D02*
G01X130091Y3181D01*
G01X128291Y3181D01*
G01X128291Y1781D01*
G01X130091Y1781D01*
G37*
G36*
G01X130091Y5181D02*
G01X130091Y6581D01*
G01X128291Y6581D01*
G01X128291Y5181D01*
G01X130091Y5181D01*
G37*
G36*
G01X104924Y2416D02*
G01X104924Y2716D01*
G01X104625Y2716D01*
G01X104625Y2416D01*
G01X104924Y2416D01*
G37*
G36*
G01X104924Y3016D02*
G01X104924Y3316D01*
G01X104625Y3316D01*
G01X104625Y3016D01*
G01X104924Y3016D01*
G37*
G36*
G01X107868Y2606D02*
G01X107868Y3106D01*
G01X107269Y3106D01*
G01X107269Y2606D01*
G01X107868Y2606D01*
G37*
G36*
G01X107868Y3606D02*
G01X107868Y4106D01*
G01X107269Y4106D01*
G01X107269Y3606D01*
G01X107868Y3606D01*
G37*
G36*
G01X110559Y2525D02*
G01X110559Y3125D01*
G01X109659Y3125D01*
G01X109659Y2525D01*
G01X110559Y2525D01*
G37*
G36*
G01X110559Y4025D02*
G01X110559Y4625D01*
G01X109659Y4625D01*
G01X109659Y4025D01*
G01X110559Y4025D01*
G37*
G36*
G01X104924Y4753D02*
G01X104924Y5053D01*
G01X104625Y5053D01*
G01X104625Y4753D01*
G01X104924Y4753D01*
G37*
G36*
G01X104924Y5353D02*
G01X104924Y5653D01*
G01X104625Y5653D01*
G01X104625Y5353D01*
G01X104924Y5353D01*
G37*
G36*
G01X125948Y5131D02*
G01X125948Y5930D01*
G01X124749Y5930D01*
G01X124749Y5131D01*
G01X125948Y5131D01*
G37*
G36*
G01X125948Y6731D02*
G01X125948Y7530D01*
G01X124749Y7530D01*
G01X124749Y6731D01*
G01X125948Y6731D01*
G37*
M00*
M02*
