G04 Layer: TopPasteMaskLayer*
G04 EasyEDA v6.3.43, 2020-06-04T01:39:48+01:00*
G04 c5e8e4d559e34370b9c9d94393fceecd,c23c5ad5fcdd482d9714491510f6a4f3,10*
G04 Gerber Generator version 0.2*
G04 Scale: 100 percent, Rotated: No, Reflected: No *
G04 Dimensions in millimeters *
G04 leading zeros omitted , absolute positions ,3 integer and 3 decimal *
%FSLAX33Y33*%
%MOMM*%
G90*
G71D02*

%ADD17C,0.280010*%
%ADD20R,1.270000X2.540000*%
%ADD21R,0.499999X0.799998*%
%ADD22R,3.799992X1.399540*%
%ADD23R,3.499993X1.599997*%
%ADD24R,0.299999X0.699999*%
%ADD25R,0.999998X0.699999*%
%ADD26R,1.050011X0.650011*%
%ADD27R,0.799998X0.499999*%
%ADD28R,1.250010X0.699999*%
%ADD29R,0.699999X1.250010*%
%ADD30R,0.499999X0.599999*%
%ADD31R,0.419989X0.599999*%
%ADD32R,0.550012X0.999998*%
%ADD33R,0.899160X0.701040*%
%ADD34R,0.701040X0.899160*%
%ADD35R,0.200000X0.699999*%
%ADD36R,1.099998X0.999998*%
%ADD37R,0.999998X0.999998*%
%ADD40R,5.299989X5.299989*%
%ADD41R,1.499997X0.304800*%
%ADD42R,0.375920X0.350520*%
%ADD43R,0.350520X0.375920*%
%ADD44R,1.499870X1.199896*%

%LPD*%
G54D17*
G01X15697Y15449D02*
G01X16417Y15449D01*
G01X15697Y14949D02*
G01X16417Y14949D01*
G01X15697Y14448D02*
G01X16417Y14448D01*
G01X15697Y13948D02*
G01X16417Y13948D01*
G01X15697Y13448D02*
G01X16417Y13448D01*
G01X15697Y12947D02*
G01X16417Y12947D01*
G01X15697Y12449D02*
G01X16417Y12449D01*
G01X15697Y11949D02*
G01X16417Y11949D01*
G01X15697Y11449D02*
G01X16417Y11449D01*
G01X15697Y10948D02*
G01X16417Y10948D01*
G01X15697Y10448D02*
G01X16417Y10448D01*
G01X15697Y9947D02*
G01X16417Y9947D01*
G01X16814Y9540D02*
G01X16814Y8820D01*
G01X17315Y9540D02*
G01X17315Y8820D01*
G01X17815Y9540D02*
G01X17815Y8820D01*
G01X18315Y9540D02*
G01X18315Y8820D01*
G01X18816Y9540D02*
G01X18816Y8820D01*
G01X19316Y9540D02*
G01X19316Y8820D01*
G01X19814Y9540D02*
G01X19814Y8820D01*
G01X20314Y9540D02*
G01X20314Y8820D01*
G01X20815Y9540D02*
G01X20815Y8820D01*
G01X21315Y9540D02*
G01X21315Y8820D01*
G01X21816Y9540D02*
G01X21816Y8820D01*
G01X22316Y9540D02*
G01X22316Y8820D01*
G01X22697Y9963D02*
G01X23417Y9963D01*
G01X22697Y10463D02*
G01X23417Y10463D01*
G01X22697Y10963D02*
G01X23417Y10963D01*
G01X22697Y11464D02*
G01X23417Y11464D01*
G01X22697Y11964D02*
G01X23417Y11964D01*
G01X22697Y12465D02*
G01X23417Y12465D01*
G01X22697Y12962D02*
G01X23417Y12962D01*
G01X22697Y13463D02*
G01X23417Y13463D01*
G01X22697Y13963D02*
G01X23417Y13963D01*
G01X22697Y14464D02*
G01X23417Y14464D01*
G01X22697Y14964D02*
G01X23417Y14964D01*
G01X22697Y15464D02*
G01X23417Y15464D01*
G01X22326Y16540D02*
G01X22326Y15820D01*
G01X21826Y16540D02*
G01X21826Y15820D01*
G01X21325Y16540D02*
G01X21325Y15820D01*
G01X20825Y16540D02*
G01X20825Y15820D01*
G01X20325Y16540D02*
G01X20325Y15820D01*
G01X19824Y16540D02*
G01X19824Y15820D01*
G01X19326Y16540D02*
G01X19326Y15820D01*
G01X18826Y16540D02*
G01X18826Y15820D01*
G01X18326Y16540D02*
G01X18326Y15820D01*
G01X17825Y16540D02*
G01X17825Y15820D01*
G01X17325Y16540D02*
G01X17325Y15820D01*
G01X16824Y16540D02*
G01X16824Y15820D01*
G36*
G01X155130Y2711D02*
G01X155130Y44D01*
G01X152463Y44D01*
G01X152463Y933D01*
G01X154241Y933D01*
G01X154241Y2711D01*
G01X155130Y2711D01*
G37*
G36*
G01X2730Y44D02*
G01X63Y44D01*
G01X63Y2711D01*
G01X952Y2711D01*
G01X952Y933D01*
G01X2730Y933D01*
G01X2730Y44D01*
G37*
G54D20*
G01X33147Y7282D03*
G01X33147Y1823D03*
G01X30607Y7282D03*
G01X30607Y1823D03*
G01X28067Y7282D03*
G01X28067Y1823D03*
G01X25527Y7282D03*
G01X25527Y1823D03*
G01X43434Y7282D03*
G01X43434Y1823D03*
G01X40894Y7282D03*
G01X40894Y1823D03*
G01X38354Y7282D03*
G01X38354Y1823D03*
G01X35814Y7282D03*
G01X35814Y1823D03*
G01X53721Y7282D03*
G01X53721Y1823D03*
G01X51181Y7282D03*
G01X51181Y1823D03*
G01X48641Y7282D03*
G01X48641Y1823D03*
G01X46101Y7282D03*
G01X46101Y1823D03*
G01X64008Y7282D03*
G01X64008Y1823D03*
G01X61468Y7282D03*
G01X61468Y1823D03*
G01X58928Y7282D03*
G01X58928Y1823D03*
G01X56388Y7282D03*
G01X56388Y1823D03*
G01X74295Y7282D03*
G01X74295Y1823D03*
G01X71755Y7282D03*
G01X71755Y1823D03*
G01X69215Y7282D03*
G01X69215Y1823D03*
G01X66675Y7282D03*
G01X66675Y1823D03*
G01X84582Y7282D03*
G01X84582Y1823D03*
G01X82042Y7282D03*
G01X82042Y1823D03*
G01X79502Y7282D03*
G01X79502Y1823D03*
G01X76962Y7282D03*
G01X76962Y1823D03*
G54D21*
G01X83319Y9379D03*
G01X84319Y9379D03*
G01X82415Y11157D03*
G01X81415Y11157D03*
G01X81923Y12681D03*
G01X82923Y12681D03*
G01X86605Y9379D03*
G01X85605Y9379D03*
G54D22*
G01X99519Y13168D03*
G01X99520Y10669D03*
G54D23*
G01X106220Y16118D03*
G01X106220Y7719D03*
G54D24*
G01X89331Y7564D03*
G01X89831Y7564D03*
G01X90331Y7564D03*
G01X90833Y7564D03*
G01X91333Y7564D03*
G01X91829Y7564D03*
G01X92833Y7564D03*
G01X93328Y7564D03*
G01X93829Y7564D03*
G01X94328Y7564D03*
G01X94829Y7564D03*
G01X95328Y7564D03*
G54D25*
G01X89228Y6264D03*
G54D24*
G01X90079Y6264D03*
G01X90578Y6264D03*
G01X91079Y6264D03*
G01X91578Y6264D03*
G01X92079Y6264D03*
G01X92578Y6264D03*
G01X93079Y6264D03*
G01X93578Y6264D03*
G01X94079Y6264D03*
G01X94578Y6264D03*
G54D25*
G01X95429Y6264D03*
G54D26*
G01X45921Y16060D03*
G01X41721Y16060D03*
G01X45921Y18260D03*
G01X41721Y18260D03*
G54D21*
G01X89019Y9887D03*
G01X88019Y9887D03*
G36*
G01X12521Y4305D02*
G01X12875Y4659D01*
G01X13441Y4093D01*
G01X13087Y3739D01*
G01X12521Y4305D01*
G37*
G36*
G01X13229Y5012D02*
G01X13582Y5366D01*
G01X14148Y4800D01*
G01X13794Y4446D01*
G01X13229Y5012D01*
G37*
G36*
G01X12243Y6705D02*
G01X11889Y6351D01*
G01X11323Y6917D01*
G01X11677Y7271D01*
G01X12243Y6705D01*
G37*
G36*
G01X11535Y5998D02*
G01X11182Y5644D01*
G01X10616Y6210D01*
G01X10970Y6564D01*
G01X11535Y5998D01*
G37*
G01X91194Y14840D03*
G01X92194Y14840D03*
G01X91321Y17761D03*
G01X92321Y17761D03*
G54D27*
G01X71755Y18149D03*
G01X71755Y19149D03*
G54D21*
G01X100830Y7093D03*
G01X99830Y7093D03*
G54D27*
G01X97917Y5688D03*
G01X97917Y4688D03*
G54D21*
G01X39123Y16110D03*
G01X40123Y16110D03*
G01X88003Y19158D03*
G01X87003Y19158D03*
G54D27*
G01X67437Y18149D03*
G01X67437Y19149D03*
G54D28*
G01X89514Y16618D03*
G01X87015Y15668D03*
G01X87015Y17567D03*
G54D29*
G01X102108Y6818D03*
G01X103057Y4319D03*
G01X101158Y4319D03*
G54D30*
G01X96901Y17211D03*
G01X96901Y18310D03*
G54D31*
G01X70245Y17827D03*
G01X69596Y17827D03*
G01X68946Y17827D03*
G01X68946Y19726D03*
G01X69596Y19726D03*
G01X70245Y19726D03*
G54D21*
G01X9262Y12173D03*
G01X8262Y12173D03*
G01X101734Y2648D03*
G01X102734Y2648D03*
G54D27*
G01X37338Y14975D03*
G01X37338Y15975D03*
G01X6858Y13180D03*
G01X6858Y12180D03*
G54D32*
G01X95482Y14811D03*
G01X93582Y14811D03*
G01X93582Y17811D03*
G01X94532Y17811D03*
G01X95482Y17811D03*
G54D33*
G01X96901Y15881D03*
G01X96901Y14560D03*
G54D34*
G01X93954Y13443D03*
G01X95275Y13443D03*
G54D35*
G01X92603Y10453D03*
G01X92203Y10453D03*
G01X91802Y10453D03*
G01X91800Y9574D03*
G01X92203Y9574D03*
G01X92603Y9574D03*
G54D21*
G01X38218Y18777D03*
G01X37218Y18777D03*
G01X39124Y17507D03*
G01X40124Y17507D03*
G54D36*
G01X95250Y11041D03*
G01X95250Y9241D03*
G54D37*
G01X84836Y17817D03*
G01X84836Y15418D03*
G54D21*
G01X63364Y16237D03*
G01X62364Y16237D03*
G54D27*
G01X20193Y4815D03*
G01X20193Y5815D03*
G54D21*
G01X63762Y21063D03*
G01X64762Y21063D03*
G54D27*
G01X99314Y4688D03*
G01X99314Y5688D03*
G54D21*
G01X23757Y17253D03*
G01X24757Y17253D03*
G54D27*
G01X16637Y18768D03*
G01X16637Y17768D03*
G36*
G01X13990Y6053D02*
G01X15263Y7326D01*
G01X15970Y6618D01*
G01X14698Y5346D01*
G01X13990Y6053D01*
G37*
G36*
G01X12223Y7821D02*
G01X13495Y9093D01*
G01X14203Y8386D01*
G01X12930Y7113D01*
G01X12223Y7821D01*
G37*
G01X15113Y18768D03*
G01X15113Y17768D03*
G36*
G01X34410Y19329D02*
G01X33788Y19329D01*
G01X33788Y18224D01*
G01X34410Y18224D01*
G01X34410Y19329D01*
G37*
G36*
G01X35350Y19329D02*
G01X34728Y19329D01*
G01X34728Y18224D01*
G01X35350Y18224D01*
G01X35350Y19329D01*
G37*
G36*
G01X36315Y19329D02*
G01X35693Y19329D01*
G01X35693Y18224D01*
G01X36315Y18224D01*
G01X36315Y19329D01*
G37*
G36*
G01X36290Y16535D02*
G01X35668Y16535D01*
G01X35668Y15430D01*
G01X36290Y15430D01*
G01X36290Y16535D01*
G37*
G36*
G01X34410Y16535D02*
G01X33788Y16535D01*
G01X33788Y15430D01*
G01X34410Y15430D01*
G01X34410Y16535D01*
G37*
G54D40*
G01X19558Y12681D03*
G54D41*
G01X65189Y17650D03*
G01X65189Y18150D03*
G01X65189Y18650D03*
G01X65189Y19150D03*
G01X65189Y19649D03*
G01X60286Y19649D03*
G01X60286Y19150D03*
G01X60286Y18650D03*
G01X60286Y18150D03*
G01X60286Y17650D03*
G36*
G01X10039Y14129D02*
G01X10393Y13775D01*
G01X9827Y13209D01*
G01X9473Y13563D01*
G01X10039Y14129D01*
G37*
G36*
G01X10746Y13421D02*
G01X11100Y13068D01*
G01X10534Y12502D01*
G01X10180Y12856D01*
G01X10746Y13421D01*
G37*
G54D42*
G01X84212Y11288D03*
G01X84212Y11787D03*
G54D43*
G01X84212Y12288D03*
G01X84713Y12288D03*
G01X85212Y12288D03*
G01X85713Y12288D03*
G54D42*
G01X85713Y11787D03*
G01X85713Y11288D03*
G54D43*
G01X85713Y10787D03*
G01X85212Y10787D03*
G01X84713Y10787D03*
G01X84212Y10787D03*
G54D44*
G01X5126Y7855D03*
G01X5126Y18555D03*
G01X1397Y10054D03*
G01X1397Y7855D03*
G36*
G01X48168Y16904D02*
G01X49367Y16904D01*
G01X49367Y15380D01*
G01X48168Y15380D01*
G01X48168Y16904D01*
G37*
G36*
G01X50708Y16904D02*
G01X51907Y16904D01*
G01X51907Y15380D01*
G01X50708Y15380D01*
G01X50708Y16904D01*
G37*
G36*
G01X53248Y16904D02*
G01X54447Y16904D01*
G01X54447Y15380D01*
G01X53248Y15380D01*
G01X53248Y16904D01*
G37*
G36*
G01X53248Y20903D02*
G01X54447Y20903D01*
G01X54447Y19379D01*
G01X53248Y19379D01*
G01X53248Y20903D01*
G37*
G36*
G01X50708Y20903D02*
G01X51907Y20903D01*
G01X51907Y19379D01*
G01X50708Y19379D01*
G01X50708Y20903D01*
G37*
G36*
G01X48168Y20903D02*
G01X49367Y20903D01*
G01X49367Y19379D01*
G01X48168Y19379D01*
G01X48168Y20903D01*
G37*
M00*
M02*
