;Layer: Drill PTH
;EasyEDA v6.3.43, 2020-06-04T01:39:48+01:00
;c5e8e4d559e34370b9c9d94393fceecd,c23c5ad5fcdd482d9714491510f6a4f3,10
;Gerber Generator version 0.2
M48
METRIC,LZ,000.000
;Holesize 1 = 0.301 METRIC
T01C0.301
;Holesize 2 = 0.305 METRIC
T02C0.305
;Holesize 3 = 0.800 METRIC
T03C0.800
%
G05
G90
T01
X+020193Y+006839
X+077470Y+011284
X+079756Y+009125
X+091821Y+008617
X+058547Y+020555
X+039624Y+018650
X+014605Y+003283
X+014859Y+004045
X+074295Y+004934
X+066675Y+005315
X+058547Y+009125
X+033909Y+009125
X+017907Y+012681
X+018923Y+012681
X+020193Y+012681
X+021209Y+012681
X+017907Y+011665
X+017907Y+010649
X+018923Y+010649
X+018923Y+011665
X+020193Y+011665
X+020193Y+010649
X+021209Y+010649
X+021209Y+011665
X+021209Y+013697
X+020193Y+013697
X+018923Y+013697
X+017907Y+013697
X+021209Y+014713
X+020193Y+014713
X+018923Y+014713
X+017907Y+014713
X+018542Y+017253
X+014859Y+014205
X+013462Y+011284
X+014097Y+010776
X+016256Y+007601
X+017018Y+007347
X+017780Y+007093
X+018542Y+006839
X+019304Y+006712
X+021209Y+006204
X+021971Y+006712
X+023495Y+007728
X+038354Y+003791
X+040894Y+003791
X+048641Y+003791
X+051181Y+003791
X+046101Y+003791
X+043434Y+003791
X+053721Y+003791
X+056388Y+003791
X+092329Y+005315
X+092833Y+008620
X+091059Y+005315
X+093853Y+008617
X+090424Y+004299
X+090424Y+008998
X+066548Y+019793
X+065786Y+016745
X+066802Y+016999
X+061468Y+019158
X+062992Y+019539
X+024511Y+011157
X+025146Y+011665
X+025781Y+012173
X+026289Y+012808
X+026162Y+013570
X+025908Y+014332
X+076962Y+003791
X+079502Y+003791
X+082042Y+003791
X+082042Y+005315
X+084582Y+005315
X+084582Y+003791
X+020066Y+018650
X+023749Y+019412
X+102108Y+005188
X+101092Y+005696
X+037338Y+016999
X+023495Y+016237
X+075311Y+014586
X+079629Y+020047
X+080010Y+017380
X+071374Y+016999
X+066040Y+009252
X+058801Y+004680
X+074295Y+003791
X+074041Y+010522
X+098298Y+015348
X+102997Y+012681
X+104267Y+012427
X+104394Y+011157
X+104267Y+013570
X+103505Y+014205
X+106045Y+010014
X+087884Y+011157
X+088265Y+014967
X+090043Y+015602
X+093472Y+016745
X+093853Y+015983
X+094361Y+016745
X+042926Y+017634
X+044704Y+017634
X+043815Y+016999
X+061341Y+015983
X+063373Y+017507
X+001270Y+018142
X+015875Y+020555
X+013462Y+019285
X+007239Y+014205
X+004318Y+012681
X+001397Y+012808
X+002921Y+008109
X+006604Y+010903
X+014097Y+020301
X+008128Y+014840
X+032893Y+016364
X+038735Y+015094
X+038227Y+017888
X+025781Y+016745
X+010160Y+005569
X+012319Y+003410
X+011684Y+004807
X+021209Y+005188
X+023241Y+009252
X+024384Y+009252
X+033020Y+009252
X+030607Y+009252
X+028067Y+009252
X+025527Y+009252
X+061468Y+004680
X+064008Y+004553
X+063754Y+009252
X+069215Y+003918
X+071755Y+003918
X+086487Y+011411
X+084963Y+011538
X+082550Y+010141
X+079375Y+005315
X+080645Y+012300
X+091821Y+011665
X+075692Y+008871
X+005080Y+015094
X+006350Y+017126
X+013081Y+017507
X+004445Y+016237
X+002286Y+016999
X+004572Y+017253
X+001651Y+015729
X+001905Y+014332
X+004318Y+014459
X+002032Y+006585
X+031623Y+015094
X+033020Y+019666
X+058801Y+019539
X+058928Y+018650
X+029210Y+020682
X+028702Y+020047
X+031369Y+019539
X+073025Y+018523
X+006350Y+010141
X+005588Y+009887
X+005080Y+009252
X+004318Y+009252
X+003556Y+009252
X+002794Y+009252
X+001778Y+008871
X+001016Y+008871
X+001016Y+011284
X+001778Y+011284
X+002667Y+010903
X+003556Y+010903
X+004445Y+011030
X+005207Y+011665
X+005715Y+012427
X+006350Y+014078
X+008001Y+013443
X+008763Y+013316
X+009271Y+011157
X+007874Y+011030
X+007239Y+011411
X+010160Y+014713
X+009144Y+014332
X+010922Y+014967
X+011557Y+015475
X+006350Y+009252
X+005207Y+006204
X+003937Y+006585
X+006350Y+014840
X+006350Y+015602
X+006350Y+016364
X+002413Y+018650
X+001016Y+006585
X+002794Y+007093
X+008636Y+011030
X+005715Y+013316
X+058039Y+022587
T02
X+051308Y+018269
X+048768Y+018243
X+045593Y+014967
T03
X+096648Y+006654G85X+096648Y+007654
X+088009Y+006655G85X+088009Y+007654
X+088009Y+001145G85X+088009Y+002444
X+096648Y+001144G85X+096648Y+002444
M30
