G04 Layer: BottomSolderMaskLayer*
G04 EasyEDA v6.3.43, 2020-06-04T01:39:48+01:00*
G04 c5e8e4d559e34370b9c9d94393fceecd,c23c5ad5fcdd482d9714491510f6a4f3,10*
G04 Gerber Generator version 0.2*
G04 Scale: 100 percent, Rotated: No, Reflected: No *
G04 Dimensions in millimeters *
G04 leading zeros omitted , absolute positions ,3 integer and 3 decimal *
%FSLAX33Y33*%
%MOMM*%
G90*
G71D02*

%ADD70C,1.403198*%
%ADD103R,0.457200X1.346200*%

%LPD*%
G54D70*
G01X96649Y7654D02*
G01X96649Y6654D01*
G01X88009Y7654D02*
G01X88009Y6654D01*
G01X88009Y2445D02*
G01X88009Y1145D01*
G01X96649Y2445D02*
G01X96649Y1145D01*

%LPD*%
G36*
G01X130141Y21685D02*
G01X129854Y21685D01*
G01X129854Y21581D01*
G01X130141Y21581D01*
G01X130141Y21685D01*
G37*

%LPD*%
G36*
G01X133367Y21685D02*
G01X133078Y21685D01*
G01X133078Y21581D01*
G01X133367Y21581D01*
G01X133367Y21685D01*
G37*

%LPD*%
G36*
G01X136126Y21698D02*
G01X135643Y21698D01*
G01X135643Y21568D01*
G01X136126Y21568D01*
G01X136126Y21698D01*
G37*

%LPD*%
G36*
G01X139491Y21698D02*
G01X139006Y21698D01*
G01X139006Y21568D01*
G01X139491Y21568D01*
G01X139491Y21698D01*
G37*

%LPD*%
G36*
G01X144978Y21698D02*
G01X144495Y21698D01*
G01X144495Y21568D01*
G01X144978Y21568D01*
G01X144978Y21698D01*
G37*

%LPD*%
G36*
G01X147993Y21698D02*
G01X147510Y21698D01*
G01X147510Y21568D01*
G01X147993Y21568D01*
G01X147993Y21698D01*
G37*

%LPD*%
G36*
G01X127142Y22061D02*
G01X126565Y22061D01*
G01X126504Y22056D01*
G01X126451Y22042D01*
G01X126405Y22021D01*
G01X126367Y21991D01*
G01X126337Y21956D01*
G01X126316Y21914D01*
G01X126303Y21868D01*
G01X126298Y21817D01*
G01X126303Y21765D01*
G01X126317Y21717D01*
G01X126339Y21675D01*
G01X126369Y21638D01*
G01X126407Y21609D01*
G01X126453Y21586D01*
G01X126506Y21573D01*
G01X126565Y21568D01*
G01X126880Y21568D01*
G01X126934Y21561D01*
G01X126973Y21540D01*
G01X126996Y21505D01*
G01X127005Y21456D01*
G01X127005Y21342D01*
G01X126311Y21342D01*
G01X126311Y21190D01*
G01X127149Y21190D01*
G01X127149Y21446D01*
G01X127145Y21505D01*
G01X127132Y21556D01*
G01X127110Y21599D01*
G01X127080Y21635D01*
G01X127042Y21662D01*
G01X126996Y21682D01*
G01X126942Y21693D01*
G01X126880Y21698D01*
G01X126565Y21698D01*
G01X126520Y21705D01*
G01X126486Y21725D01*
G01X126464Y21757D01*
G01X126456Y21802D01*
G01X126464Y21846D01*
G01X126485Y21880D01*
G01X126519Y21901D01*
G01X126565Y21908D01*
G01X127142Y21908D01*
G01X127142Y22061D01*
G37*

%LPD*%
G36*
G01X129489Y22061D02*
G01X128864Y22061D01*
G01X128864Y21908D01*
G01X129489Y21908D01*
G01X129536Y21901D01*
G01X129572Y21880D01*
G01X129593Y21846D01*
G01X129600Y21802D01*
G01X129593Y21757D01*
G01X129570Y21725D01*
G01X129536Y21705D01*
G01X129491Y21698D01*
G01X129092Y21698D01*
G01X129030Y21693D01*
G01X128975Y21682D01*
G01X128928Y21662D01*
G01X128890Y21635D01*
G01X128860Y21599D01*
G01X128838Y21556D01*
G01X128825Y21505D01*
G01X128821Y21446D01*
G01X128825Y21393D01*
G01X128837Y21344D01*
G01X128858Y21300D01*
G01X128888Y21263D01*
G01X128926Y21232D01*
G01X128973Y21209D01*
G01X129028Y21195D01*
G01X129092Y21190D01*
G01X129745Y21190D01*
G01X129745Y21342D01*
G01X129092Y21342D01*
G01X129037Y21350D01*
G01X128996Y21373D01*
G01X128972Y21409D01*
G01X128963Y21456D01*
G01X128972Y21505D01*
G01X128996Y21540D01*
G01X129037Y21561D01*
G01X129092Y21568D01*
G01X129491Y21568D01*
G01X129550Y21573D01*
G01X129602Y21586D01*
G01X129648Y21609D01*
G01X129686Y21638D01*
G01X129717Y21675D01*
G01X129740Y21717D01*
G01X129753Y21765D01*
G01X129758Y21817D01*
G01X129753Y21868D01*
G01X129741Y21914D01*
G01X129719Y21956D01*
G01X129689Y21991D01*
G01X129651Y22021D01*
G01X129605Y22042D01*
G01X129551Y22056D01*
G01X129489Y22061D01*
G37*

%LPD*%
G36*
G01X130804Y22061D02*
G01X130652Y22061D01*
G01X130652Y21342D01*
G01X130065Y21342D01*
G01X130065Y21190D01*
G01X130804Y21190D01*
G01X130804Y22061D01*
G37*

%LPD*%
G36*
G01X132572Y22061D02*
G01X132359Y22061D01*
G01X132297Y22057D01*
G01X132240Y22046D01*
G01X132186Y22030D01*
G01X132136Y22006D01*
G01X132091Y21977D01*
G01X132051Y21942D01*
G01X132017Y21903D01*
G01X131987Y21858D01*
G01X131964Y21808D01*
G01X131946Y21754D01*
G01X131936Y21696D01*
G01X131932Y21634D01*
G01X131936Y21573D01*
G01X131947Y21514D01*
G01X131964Y21458D01*
G01X131988Y21407D01*
G01X132018Y21360D01*
G01X132053Y21318D01*
G01X132094Y21280D01*
G01X132139Y21249D01*
G01X132188Y21224D01*
G01X132242Y21205D01*
G01X132299Y21194D01*
G01X132359Y21190D01*
G01X132572Y21190D01*
G01X132632Y21194D01*
G01X132689Y21205D01*
G01X132741Y21224D01*
G01X132791Y21249D01*
G01X132835Y21280D01*
G01X132876Y21318D01*
G01X132911Y21360D01*
G01X132941Y21407D01*
G01X132964Y21458D01*
G01X132982Y21514D01*
G01X132993Y21573D01*
G01X132996Y21634D01*
G01X132993Y21696D01*
G01X132982Y21755D01*
G01X132964Y21809D01*
G01X132941Y21859D01*
G01X132911Y21904D01*
G01X132876Y21943D01*
G01X132835Y21978D01*
G01X132791Y22007D01*
G01X132741Y22030D01*
G01X132689Y22047D01*
G01X132632Y22057D01*
G01X132572Y22061D01*
G37*

%LPC*%
G36*
G01X132572Y21908D02*
G01X132359Y21908D01*
G01X132301Y21903D01*
G01X132249Y21887D01*
G01X132202Y21863D01*
G01X132162Y21829D01*
G01X132129Y21788D01*
G01X132105Y21740D01*
G01X132090Y21686D01*
G01X132085Y21626D01*
G01X132090Y21567D01*
G01X132105Y21513D01*
G01X132129Y21465D01*
G01X132162Y21423D01*
G01X132202Y21389D01*
G01X132249Y21363D01*
G01X132301Y21347D01*
G01X132359Y21342D01*
G01X132572Y21342D01*
G01X132629Y21347D01*
G01X132681Y21363D01*
G01X132728Y21389D01*
G01X132767Y21423D01*
G01X132799Y21465D01*
G01X132824Y21513D01*
G01X132839Y21567D01*
G01X132844Y21626D01*
G01X132839Y21687D01*
G01X132824Y21741D01*
G01X132799Y21789D01*
G01X132767Y21830D01*
G01X132728Y21863D01*
G01X132681Y21888D01*
G01X132629Y21903D01*
G01X132572Y21908D01*
G37*

%LPD*%
G36*
G01X135478Y22061D02*
G01X134853Y22061D01*
G01X134782Y22055D01*
G01X134719Y22038D01*
G01X134665Y22012D01*
G01X134619Y21975D01*
G01X134583Y21930D01*
G01X134557Y21875D01*
G01X134541Y21813D01*
G01X134536Y21743D01*
G01X134539Y21692D01*
G01X134548Y21644D01*
G01X134563Y21600D01*
G01X134583Y21561D01*
G01X134609Y21527D01*
G01X134640Y21497D01*
G01X134675Y21472D01*
G01X134716Y21454D01*
G01X134452Y21190D01*
G01X134668Y21190D01*
G01X134889Y21431D01*
G01X135216Y21431D01*
G01X135216Y21565D01*
G01X134853Y21565D01*
G01X134781Y21577D01*
G01X134728Y21611D01*
G01X134696Y21666D01*
G01X134686Y21741D01*
G01X134697Y21815D01*
G01X134730Y21867D01*
G01X134783Y21898D01*
G01X134853Y21908D01*
G01X135328Y21908D01*
G01X135328Y21190D01*
G01X135478Y21190D01*
G01X135478Y22061D01*
G37*

%LPD*%
G36*
G01X136390Y22061D02*
G01X135610Y22061D01*
G01X135610Y21908D01*
G01X136237Y21908D01*
G01X136237Y21342D01*
G01X135610Y21342D01*
G01X135610Y21190D01*
G01X136390Y21190D01*
G01X136390Y22061D01*
G37*

%LPD*%
G36*
G01X136987Y22061D02*
G01X136514Y22061D01*
G01X136514Y21908D01*
G01X136987Y21908D01*
G01X137043Y21903D01*
G01X137094Y21888D01*
G01X137141Y21863D01*
G01X137181Y21830D01*
G01X137213Y21789D01*
G01X137238Y21741D01*
G01X137253Y21687D01*
G01X137259Y21626D01*
G01X137253Y21567D01*
G01X137238Y21513D01*
G01X137214Y21465D01*
G01X137182Y21423D01*
G01X137142Y21389D01*
G01X137095Y21363D01*
G01X137044Y21347D01*
G01X136987Y21342D01*
G01X136514Y21342D01*
G01X136514Y21190D01*
G01X136987Y21190D01*
G01X137046Y21194D01*
G01X137103Y21205D01*
G01X137156Y21224D01*
G01X137205Y21249D01*
G01X137250Y21280D01*
G01X137290Y21318D01*
G01X137326Y21360D01*
G01X137355Y21407D01*
G01X137379Y21458D01*
G01X137396Y21514D01*
G01X137407Y21573D01*
G01X137411Y21634D01*
G01X137407Y21696D01*
G01X137396Y21755D01*
G01X137379Y21809D01*
G01X137355Y21859D01*
G01X137326Y21904D01*
G01X137290Y21943D01*
G01X137250Y21978D01*
G01X137205Y22007D01*
G01X137156Y22030D01*
G01X137103Y22047D01*
G01X137046Y22057D01*
G01X136987Y22061D01*
G37*

%LPD*%
G36*
G01X138844Y22061D02*
G01X138216Y22061D01*
G01X138146Y22055D01*
G01X138083Y22038D01*
G01X138029Y22012D01*
G01X137983Y21975D01*
G01X137947Y21930D01*
G01X137920Y21875D01*
G01X137904Y21813D01*
G01X137899Y21743D01*
G01X137902Y21692D01*
G01X137911Y21644D01*
G01X137926Y21600D01*
G01X137947Y21561D01*
G01X137973Y21527D01*
G01X138004Y21497D01*
G01X138039Y21472D01*
G01X138079Y21454D01*
G01X137817Y21190D01*
G01X138033Y21190D01*
G01X138254Y21431D01*
G01X138579Y21431D01*
G01X138579Y21565D01*
G01X138216Y21565D01*
G01X138144Y21577D01*
G01X138091Y21611D01*
G01X138059Y21666D01*
G01X138049Y21741D01*
G01X138060Y21815D01*
G01X138093Y21867D01*
G01X138146Y21898D01*
G01X138216Y21908D01*
G01X138691Y21908D01*
G01X138691Y21190D01*
G01X138844Y21190D01*
G01X138844Y22061D01*
G37*

%LPD*%
G36*
G01X139753Y22061D02*
G01X138976Y22061D01*
G01X138976Y21908D01*
G01X139603Y21908D01*
G01X139603Y21342D01*
G01X138973Y21342D01*
G01X138973Y21190D01*
G01X139753Y21190D01*
G01X139753Y22061D01*
G37*

%LPD*%
G36*
G01X140807Y22061D02*
G01X140304Y22061D01*
G01X140244Y22057D01*
G01X140187Y22046D01*
G01X140133Y22030D01*
G01X140084Y22006D01*
G01X140039Y21977D01*
G01X139998Y21942D01*
G01X139963Y21903D01*
G01X139933Y21858D01*
G01X139909Y21808D01*
G01X139892Y21754D01*
G01X139881Y21696D01*
G01X139877Y21634D01*
G01X139881Y21573D01*
G01X139892Y21514D01*
G01X139909Y21458D01*
G01X139933Y21407D01*
G01X139963Y21360D01*
G01X139998Y21318D01*
G01X140039Y21280D01*
G01X140084Y21249D01*
G01X140133Y21224D01*
G01X140187Y21205D01*
G01X140244Y21194D01*
G01X140304Y21190D01*
G01X140807Y21190D01*
G01X140807Y22061D01*
G37*

%LPC*%
G36*
G01X140657Y21908D02*
G01X140304Y21908D01*
G01X140247Y21903D01*
G01X140195Y21887D01*
G01X140148Y21863D01*
G01X140108Y21829D01*
G01X140075Y21788D01*
G01X140051Y21740D01*
G01X140035Y21686D01*
G01X140030Y21626D01*
G01X140035Y21567D01*
G01X140051Y21513D01*
G01X140075Y21465D01*
G01X140108Y21423D01*
G01X140148Y21389D01*
G01X140195Y21363D01*
G01X140247Y21347D01*
G01X140304Y21342D01*
G01X140657Y21342D01*
G01X140657Y21908D01*
G37*

%LPD*%
G36*
G01X144330Y22061D02*
G01X143824Y22061D01*
G01X143765Y22057D01*
G01X143708Y22046D01*
G01X143654Y22030D01*
G01X143605Y22006D01*
G01X143560Y21977D01*
G01X143520Y21942D01*
G01X143485Y21903D01*
G01X143456Y21858D01*
G01X143432Y21808D01*
G01X143415Y21754D01*
G01X143404Y21696D01*
G01X143400Y21634D01*
G01X143404Y21573D01*
G01X143415Y21514D01*
G01X143432Y21458D01*
G01X143456Y21407D01*
G01X143485Y21360D01*
G01X143520Y21318D01*
G01X143560Y21280D01*
G01X143605Y21249D01*
G01X143654Y21224D01*
G01X143708Y21205D01*
G01X143765Y21194D01*
G01X143824Y21190D01*
G01X144330Y21190D01*
G01X144330Y22061D01*
G37*

%LPC*%
G36*
G01X144180Y21908D02*
G01X143824Y21908D01*
G01X143768Y21903D01*
G01X143716Y21887D01*
G01X143669Y21863D01*
G01X143629Y21829D01*
G01X143597Y21788D01*
G01X143573Y21740D01*
G01X143558Y21686D01*
G01X143553Y21626D01*
G01X143558Y21567D01*
G01X143573Y21513D01*
G01X143597Y21465D01*
G01X143629Y21423D01*
G01X143669Y21389D01*
G01X143716Y21363D01*
G01X143768Y21347D01*
G01X143824Y21342D01*
G01X144180Y21342D01*
G01X144180Y21908D01*
G37*

%LPD*%
G36*
G01X145242Y22061D02*
G01X144462Y22061D01*
G01X144462Y21908D01*
G01X145089Y21908D01*
G01X145089Y21342D01*
G01X144462Y21342D01*
G01X144462Y21190D01*
G01X145242Y21190D01*
G01X145242Y22061D01*
G37*

%LPD*%
G36*
G01X146042Y22061D02*
G01X145415Y22061D01*
G01X145415Y21908D01*
G01X146042Y21908D01*
G01X146088Y21901D01*
G01X146122Y21880D01*
G01X146143Y21846D01*
G01X146151Y21802D01*
G01X146143Y21757D01*
G01X146122Y21725D01*
G01X146088Y21705D01*
G01X146042Y21698D01*
G01X145643Y21698D01*
G01X145581Y21693D01*
G01X145526Y21682D01*
G01X145479Y21662D01*
G01X145440Y21635D01*
G01X145410Y21599D01*
G01X145389Y21556D01*
G01X145376Y21505D01*
G01X145371Y21446D01*
G01X145375Y21393D01*
G01X145388Y21344D01*
G01X145409Y21300D01*
G01X145439Y21263D01*
G01X145477Y21232D01*
G01X145524Y21209D01*
G01X145579Y21195D01*
G01X145643Y21190D01*
G01X146296Y21190D01*
G01X146296Y21342D01*
G01X145643Y21342D01*
G01X145589Y21350D01*
G01X145549Y21373D01*
G01X145525Y21409D01*
G01X145516Y21456D01*
G01X145525Y21505D01*
G01X145549Y21540D01*
G01X145589Y21561D01*
G01X145643Y21568D01*
G01X146044Y21568D01*
G01X146102Y21573D01*
G01X146155Y21586D01*
G01X146200Y21609D01*
G01X146239Y21638D01*
G01X146269Y21675D01*
G01X146292Y21717D01*
G01X146307Y21765D01*
G01X146311Y21817D01*
G01X146307Y21868D01*
G01X146293Y21914D01*
G01X146271Y21956D01*
G01X146242Y21991D01*
G01X146203Y22021D01*
G01X146157Y22042D01*
G01X146103Y22056D01*
G01X146042Y22061D01*
G37*

%LPD*%
G36*
G01X148254Y22061D02*
G01X147477Y22061D01*
G01X147477Y21908D01*
G01X148104Y21908D01*
G01X148104Y21342D01*
G01X147474Y21342D01*
G01X147474Y21190D01*
G01X148254Y21190D01*
G01X148254Y22061D01*
G37*

%LPD*%
G36*
G01X148851Y22061D02*
G01X148379Y22061D01*
G01X148379Y21908D01*
G01X148851Y21908D01*
G01X148908Y21903D01*
G01X148960Y21888D01*
G01X149007Y21863D01*
G01X149046Y21830D01*
G01X149078Y21789D01*
G01X149103Y21741D01*
G01X149118Y21687D01*
G01X149123Y21626D01*
G01X149118Y21567D01*
G01X149103Y21513D01*
G01X149078Y21465D01*
G01X149046Y21423D01*
G01X149007Y21389D01*
G01X148960Y21363D01*
G01X148908Y21347D01*
G01X148851Y21342D01*
G01X148379Y21342D01*
G01X148379Y21190D01*
G01X148851Y21190D01*
G01X148911Y21194D01*
G01X148967Y21205D01*
G01X149020Y21224D01*
G01X149070Y21249D01*
G01X149114Y21280D01*
G01X149154Y21318D01*
G01X149190Y21360D01*
G01X149219Y21407D01*
G01X149243Y21458D01*
G01X149261Y21514D01*
G01X149272Y21573D01*
G01X149275Y21634D01*
G01X149272Y21696D01*
G01X149261Y21755D01*
G01X149243Y21809D01*
G01X149219Y21859D01*
G01X149190Y21904D01*
G01X149154Y21943D01*
G01X149114Y21978D01*
G01X149070Y22007D01*
G01X149020Y22030D01*
G01X148967Y22047D01*
G01X148911Y22057D01*
G01X148851Y22061D01*
G37*

%LPD*%
G36*
G01X149562Y22061D02*
G01X149410Y22061D01*
G01X149410Y21190D01*
G01X149562Y21190D01*
G01X149562Y22061D01*
G37*

%LPD*%
G36*
G01X150418Y22061D02*
G01X150266Y22061D01*
G01X150266Y21342D01*
G01X149679Y21342D01*
G01X149679Y21190D01*
G01X150418Y21190D01*
G01X150418Y22061D01*
G37*

%LPD*%
G36*
G01X131810Y22061D02*
G01X131658Y22061D01*
G01X131658Y21187D01*
G01X131810Y21187D01*
G01X131810Y22061D01*
G37*

%LPD*%
G36*
G01X131107Y22061D02*
G01X130954Y22061D01*
G01X130954Y21187D01*
G01X131107Y21187D01*
G01X131107Y21565D01*
G01X131546Y21565D01*
G01X131546Y21700D01*
G01X131107Y21700D01*
G01X131107Y22061D01*
G37*

%LPD*%
G36*
G01X134332Y22067D02*
G01X134299Y22073D01*
G01X134283Y22071D01*
G01X134266Y22065D01*
G01X134250Y22055D01*
G01X134233Y22040D01*
G01X133619Y21431D01*
G01X133619Y22068D01*
G01X133474Y22068D01*
G01X133474Y21271D01*
G01X133480Y21232D01*
G01X133495Y21203D01*
G01X133519Y21185D01*
G01X133550Y21179D01*
G01X133569Y21181D01*
G01X133586Y21187D01*
G01X133603Y21198D01*
G01X133619Y21212D01*
G01X134231Y21827D01*
G01X134231Y21190D01*
G01X134378Y21190D01*
G01X134378Y21982D01*
G01X134373Y22020D01*
G01X134357Y22049D01*
G01X134332Y22067D01*
G37*

%LPD*%
G36*
G01X141815Y22067D02*
G01X141782Y22073D01*
G01X141766Y22071D01*
G01X141749Y22065D01*
G01X141733Y22055D01*
G01X141716Y22040D01*
G01X141102Y21431D01*
G01X141102Y22068D01*
G01X140957Y22068D01*
G01X140957Y21271D01*
G01X140962Y21232D01*
G01X140978Y21203D01*
G01X141000Y21185D01*
G01X141030Y21179D01*
G01X141049Y21181D01*
G01X141067Y21187D01*
G01X141084Y21198D01*
G01X141102Y21212D01*
G01X141714Y21827D01*
G01X141714Y21190D01*
G01X141859Y21190D01*
G01X141859Y21982D01*
G01X141853Y22020D01*
G01X141839Y22049D01*
G01X141815Y22067D01*
G37*

%LPD*%
G36*
G01X147302Y22067D02*
G01X147271Y22073D01*
G01X147254Y22071D01*
G01X147238Y22065D01*
G01X147222Y22055D01*
G01X147205Y22040D01*
G01X146591Y21431D01*
G01X146591Y22068D01*
G01X146446Y22068D01*
G01X146446Y21271D01*
G01X146451Y21232D01*
G01X146467Y21203D01*
G01X146489Y21185D01*
G01X146519Y21179D01*
G01X146538Y21181D01*
G01X146556Y21187D01*
G01X146573Y21198D01*
G01X146591Y21212D01*
G01X147203Y21827D01*
G01X147203Y21190D01*
G01X147347Y21190D01*
G01X147347Y21982D01*
G01X147342Y22020D01*
G01X147327Y22049D01*
G01X147302Y22067D01*
G37*

%LPD*%
G36*
G01X127419Y22061D02*
G01X127243Y22061D01*
G01X127746Y21228D01*
G01X127760Y21207D01*
G01X127777Y21191D01*
G01X127797Y21180D01*
G01X127820Y21177D01*
G01X127843Y21180D01*
G01X127863Y21191D01*
G01X127879Y21207D01*
G01X127894Y21228D01*
G01X128397Y22061D01*
G01X128209Y22061D01*
G01X127812Y21390D01*
G01X127419Y22061D01*
G37*

%LPD*%
G36*
G01X142143Y22061D02*
G01X141993Y22061D01*
G01X141993Y21576D01*
G01X141996Y21511D01*
G01X142005Y21452D01*
G01X142020Y21399D01*
G01X142040Y21352D01*
G01X142068Y21310D01*
G01X142103Y21274D01*
G01X142144Y21244D01*
G01X142193Y21220D01*
G01X142249Y21201D01*
G01X142313Y21187D01*
G01X142385Y21179D01*
G01X142466Y21177D01*
G01X142545Y21179D01*
G01X142617Y21187D01*
G01X142680Y21201D01*
G01X142736Y21220D01*
G01X142785Y21244D01*
G01X142826Y21274D01*
G01X142861Y21310D01*
G01X142888Y21352D01*
G01X142909Y21399D01*
G01X142924Y21452D01*
G01X142932Y21511D01*
G01X142935Y21576D01*
G01X142935Y22061D01*
G01X142778Y22061D01*
G01X142778Y21576D01*
G01X142774Y21515D01*
G01X142762Y21463D01*
G01X142740Y21420D01*
G01X142709Y21386D01*
G01X142666Y21359D01*
G01X142611Y21341D01*
G01X142543Y21330D01*
G01X142460Y21327D01*
G01X142378Y21330D01*
G01X142310Y21341D01*
G01X142255Y21359D01*
G01X142212Y21386D01*
G01X142181Y21420D01*
G01X142159Y21463D01*
G01X142147Y21515D01*
G01X142143Y21576D01*
G01X142143Y22061D01*
G37*

%LPD*%
G36*
G01X152234Y-57D02*
G01X152234Y1035D01*
G01X154012Y1035D01*
G01X154012Y2813D01*
G01X155105Y2813D01*
G01X155105Y-57D01*
G01X152234Y-57D01*
G37*
G36*
G01X-38Y-57D02*
G01X-38Y2813D01*
G01X1054Y2813D01*
G01X1054Y1035D01*
G01X2832Y1035D01*
G01X2832Y-57D01*
G01X-38Y-57D01*
G37*
G36*
G01X84429Y18530D02*
G01X84429Y18982D01*
G01X85432Y18982D01*
G01X85432Y18530D01*
G01X84429Y18530D01*
G37*
G36*
G01X84429Y18030D02*
G01X84429Y18484D01*
G01X85432Y18484D01*
G01X85432Y18030D01*
G01X84429Y18030D01*
G37*
G36*
G01X84429Y17529D02*
G01X84429Y17984D01*
G01X85432Y17984D01*
G01X85432Y17529D01*
G01X84429Y17529D01*
G37*
G36*
G01X84429Y17029D02*
G01X84429Y17484D01*
G01X85432Y17484D01*
G01X85432Y17029D01*
G01X84429Y17029D01*
G37*
G36*
G01X84429Y16531D02*
G01X84429Y16983D01*
G01X85432Y16983D01*
G01X85432Y16531D01*
G01X84429Y16531D01*
G37*
G36*
G01X84429Y16031D02*
G01X84429Y16483D01*
G01X85432Y16483D01*
G01X85432Y16031D01*
G01X84429Y16031D01*
G37*
G36*
G01X83954Y15005D02*
G01X83954Y16008D01*
G01X84406Y16008D01*
G01X84406Y15005D01*
G01X83954Y15005D01*
G37*
G36*
G01X83454Y15005D02*
G01X83454Y16008D01*
G01X83908Y16008D01*
G01X83908Y15005D01*
G01X83454Y15005D01*
G37*
G36*
G01X82953Y15005D02*
G01X82953Y16008D01*
G01X83408Y16008D01*
G01X83408Y15005D01*
G01X82953Y15005D01*
G37*
G36*
G01X82453Y15005D02*
G01X82453Y16008D01*
G01X82908Y16008D01*
G01X82908Y15005D01*
G01X82453Y15005D01*
G37*
G36*
G01X81955Y15005D02*
G01X81955Y16008D01*
G01X82407Y16008D01*
G01X82407Y15005D01*
G01X81955Y15005D01*
G37*
G36*
G01X81455Y15005D02*
G01X81455Y16008D01*
G01X81907Y16008D01*
G01X81907Y15005D01*
G01X81455Y15005D01*
G37*
G36*
G01X80429Y16031D02*
G01X80429Y16483D01*
G01X81432Y16483D01*
G01X81432Y16031D01*
G01X80429Y16031D01*
G37*
G36*
G01X80429Y16531D02*
G01X80429Y16983D01*
G01X81432Y16983D01*
G01X81432Y16531D01*
G01X80429Y16531D01*
G37*
G36*
G01X80429Y17029D02*
G01X80429Y17484D01*
G01X81432Y17484D01*
G01X81432Y17029D01*
G01X80429Y17029D01*
G37*
G36*
G01X80429Y17529D02*
G01X80429Y17984D01*
G01X81432Y17984D01*
G01X81432Y17529D01*
G01X80429Y17529D01*
G37*
G36*
G01X80429Y18030D02*
G01X80429Y18484D01*
G01X81432Y18484D01*
G01X81432Y18030D01*
G01X80429Y18030D01*
G37*
G36*
G01X80429Y18530D02*
G01X80429Y18982D01*
G01X81432Y18982D01*
G01X81432Y18530D01*
G01X80429Y18530D01*
G37*
G36*
G01X81455Y19005D02*
G01X81455Y20008D01*
G01X81907Y20008D01*
G01X81907Y19005D01*
G01X81455Y19005D01*
G37*
G36*
G01X81955Y19005D02*
G01X81955Y20008D01*
G01X82407Y20008D01*
G01X82407Y19005D01*
G01X81955Y19005D01*
G37*
G36*
G01X82453Y19005D02*
G01X82453Y20008D01*
G01X82908Y20008D01*
G01X82908Y19005D01*
G01X82453Y19005D01*
G37*
G36*
G01X82953Y19005D02*
G01X82953Y20008D01*
G01X83408Y20008D01*
G01X83408Y19005D01*
G01X82953Y19005D01*
G37*
G36*
G01X83454Y19005D02*
G01X83454Y20008D01*
G01X83908Y20008D01*
G01X83908Y19005D01*
G01X83454Y19005D01*
G37*
G36*
G01X83954Y19005D02*
G01X83954Y20008D01*
G01X84406Y20008D01*
G01X84406Y19005D01*
G01X83954Y19005D01*
G37*
G36*
G01X101760Y18266D02*
G01X101760Y18723D01*
G01X103106Y18723D01*
G01X103106Y18266D01*
G01X101760Y18266D01*
G37*
G36*
G01X101760Y17766D02*
G01X101760Y18223D01*
G01X103106Y18223D01*
G01X103106Y17766D01*
G01X101760Y17766D01*
G37*
G36*
G01X101760Y17265D02*
G01X101760Y17722D01*
G01X103106Y17722D01*
G01X103106Y17265D01*
G01X101760Y17265D01*
G37*
G36*
G01X101760Y16765D02*
G01X101760Y17222D01*
G01X103106Y17222D01*
G01X103106Y16765D01*
G01X101760Y16765D01*
G37*
G36*
G01X101760Y16267D02*
G01X101760Y16724D01*
G01X103106Y16724D01*
G01X103106Y16267D01*
G01X101760Y16267D01*
G37*
G36*
G01X101760Y15767D02*
G01X101760Y16224D01*
G01X103106Y16224D01*
G01X103106Y15767D01*
G01X101760Y15767D01*
G37*
G36*
G01X101760Y15266D02*
G01X101760Y15723D01*
G01X103106Y15723D01*
G01X103106Y15266D01*
G01X101760Y15266D01*
G37*
G36*
G01X101760Y14766D02*
G01X101760Y15223D01*
G01X103106Y15223D01*
G01X103106Y14766D01*
G01X101760Y14766D01*
G37*
G36*
G01X100454Y12571D02*
G01X100454Y13917D01*
G01X100911Y13917D01*
G01X100911Y12571D01*
G01X100454Y12571D01*
G37*
G36*
G01X99954Y12571D02*
G01X99954Y13917D01*
G01X100411Y13917D01*
G01X100411Y12571D01*
G01X99954Y12571D01*
G37*
G36*
G01X99453Y12571D02*
G01X99453Y13917D01*
G01X99910Y13917D01*
G01X99910Y12571D01*
G01X99453Y12571D01*
G37*
G36*
G01X98953Y12571D02*
G01X98953Y13917D01*
G01X99410Y13917D01*
G01X99410Y12571D01*
G01X98953Y12571D01*
G37*
G36*
G01X98455Y12571D02*
G01X98455Y13917D01*
G01X98912Y13917D01*
G01X98912Y12571D01*
G01X98455Y12571D01*
G37*
G36*
G01X97955Y12571D02*
G01X97955Y13917D01*
G01X98412Y13917D01*
G01X98412Y12571D01*
G01X97955Y12571D01*
G37*
G36*
G01X97454Y12571D02*
G01X97454Y13917D01*
G01X97911Y13917D01*
G01X97911Y12571D01*
G01X97454Y12571D01*
G37*
G36*
G01X96954Y12571D02*
G01X96954Y13917D01*
G01X97411Y13917D01*
G01X97411Y12571D01*
G01X96954Y12571D01*
G37*
G36*
G01X94759Y14766D02*
G01X94759Y15223D01*
G01X96105Y15223D01*
G01X96105Y14766D01*
G01X94759Y14766D01*
G37*
G36*
G01X94759Y15266D02*
G01X94759Y15723D01*
G01X96105Y15723D01*
G01X96105Y15266D01*
G01X94759Y15266D01*
G37*
G36*
G01X94759Y15767D02*
G01X94759Y16224D01*
G01X96105Y16224D01*
G01X96105Y15767D01*
G01X94759Y15767D01*
G37*
G36*
G01X94759Y16267D02*
G01X94759Y16724D01*
G01X96105Y16724D01*
G01X96105Y16267D01*
G01X94759Y16267D01*
G37*
G36*
G01X94759Y16765D02*
G01X94759Y17222D01*
G01X96105Y17222D01*
G01X96105Y16765D01*
G01X94759Y16765D01*
G37*
G36*
G01X94759Y17265D02*
G01X94759Y17722D01*
G01X96105Y17722D01*
G01X96105Y17265D01*
G01X94759Y17265D01*
G37*
G36*
G01X94759Y17766D02*
G01X94759Y18223D01*
G01X96105Y18223D01*
G01X96105Y17766D01*
G01X94759Y17766D01*
G37*
G36*
G01X94759Y18266D02*
G01X94759Y18723D01*
G01X96105Y18723D01*
G01X96105Y18266D01*
G01X94759Y18266D01*
G37*
G54D103*
G01X97182Y20244D03*
G36*
G01X97454Y19572D02*
G01X97454Y20918D01*
G01X97911Y20918D01*
G01X97911Y19572D01*
G01X97454Y19572D01*
G37*
G36*
G01X97955Y19572D02*
G01X97955Y20918D01*
G01X98412Y20918D01*
G01X98412Y19572D01*
G01X97955Y19572D01*
G37*
G36*
G01X98455Y19572D02*
G01X98455Y20918D01*
G01X98912Y20918D01*
G01X98912Y19572D01*
G01X98455Y19572D01*
G37*
G36*
G01X98953Y19572D02*
G01X98953Y20918D01*
G01X99410Y20918D01*
G01X99410Y19572D01*
G01X98953Y19572D01*
G37*
G36*
G01X99453Y19572D02*
G01X99453Y20918D01*
G01X99910Y20918D01*
G01X99910Y19572D01*
G01X99453Y19572D01*
G37*
G36*
G01X99954Y19572D02*
G01X99954Y20918D01*
G01X100411Y20918D01*
G01X100411Y19572D01*
G01X99954Y19572D01*
G37*
G01X100683Y20244D03*
G36*
G01X76672Y15449D02*
G01X76672Y16851D01*
G01X77454Y16851D01*
G01X77454Y15449D01*
G01X76672Y15449D01*
G37*
G36*
G01X75171Y15449D02*
G01X75171Y16851D01*
G01X75956Y16851D01*
G01X75956Y15449D01*
G01X75171Y15449D01*
G37*
G36*
G01X73672Y15449D02*
G01X73672Y16851D01*
G01X74455Y16851D01*
G01X74455Y15449D01*
G01X73672Y15449D01*
G37*
G36*
G01X74462Y18149D02*
G01X74462Y20351D01*
G01X76664Y20351D01*
G01X76664Y18149D01*
G01X74462Y18149D01*
G37*
G36*
G01X151323Y5472D02*
G01X151323Y6874D01*
G01X152074Y6874D01*
G01X152074Y5472D01*
G01X151323Y5472D01*
G37*
G36*
G01X150373Y5472D02*
G01X150373Y6874D01*
G01X151124Y6874D01*
G01X151124Y5472D01*
G01X150373Y5472D01*
G37*
G36*
G01X149423Y5472D02*
G01X149423Y6874D01*
G01X150174Y6874D01*
G01X150174Y5472D01*
G01X149423Y5472D01*
G37*
G36*
G01X149423Y8073D02*
G01X149423Y9475D01*
G01X150174Y9475D01*
G01X150174Y8073D01*
G01X149423Y8073D01*
G37*
G36*
G01X151323Y8073D02*
G01X151323Y9475D01*
G01X152074Y9475D01*
G01X152074Y8073D01*
G01X151323Y8073D01*
G37*
G36*
G01X150246Y12658D02*
G01X150246Y13760D01*
G01X151249Y13760D01*
G01X151249Y12658D01*
G01X150246Y12658D01*
G37*
G36*
G01X149296Y10557D02*
G01X149296Y11659D01*
G01X150299Y11659D01*
G01X150299Y10557D01*
G01X149296Y10557D01*
G37*
G36*
G01X151196Y10557D02*
G01X151196Y11659D01*
G01X152199Y11659D01*
G01X152199Y10557D01*
G01X151196Y10557D01*
G37*
G36*
G01X151096Y1855D02*
G01X151096Y2808D01*
G01X151701Y2808D01*
G01X151701Y1855D01*
G01X151096Y1855D01*
G37*
G36*
G01X150446Y1855D02*
G01X150446Y2808D01*
G01X151051Y2808D01*
G01X151051Y1855D01*
G01X150446Y1855D01*
G37*
G36*
G01X149796Y1855D02*
G01X149796Y2808D01*
G01X150401Y2808D01*
G01X150401Y1855D01*
G01X149796Y1855D01*
G37*
G36*
G01X149796Y3503D02*
G01X149796Y4456D01*
G01X150401Y4456D01*
G01X150401Y3503D01*
G01X149796Y3503D01*
G37*
G36*
G01X151096Y3503D02*
G01X151096Y4456D01*
G01X151701Y4456D01*
G01X151701Y3503D01*
G01X151096Y3503D01*
G37*
G36*
G01X104523Y6988D02*
G01X104523Y7491D01*
G01X105026Y7491D01*
G01X105026Y6988D01*
G01X104523Y6988D01*
G37*
G36*
G01X104523Y7588D02*
G01X104523Y8091D01*
G01X105026Y8091D01*
G01X105026Y7588D01*
G01X104523Y7588D01*
G37*
G36*
G01X107167Y6569D02*
G01X107167Y7273D01*
G01X107970Y7273D01*
G01X107970Y6569D01*
G01X107167Y6569D01*
G37*
G36*
G01X107167Y7567D02*
G01X107167Y8271D01*
G01X107970Y8271D01*
G01X107970Y7567D01*
G01X107167Y7567D01*
G37*
G36*
G01X109557Y5904D02*
G01X109557Y6706D01*
G01X110660Y6706D01*
G01X110660Y5904D01*
G01X109557Y5904D01*
G37*
G36*
G01X109557Y7402D02*
G01X109557Y8205D01*
G01X110660Y8205D01*
G01X110660Y7402D01*
G01X109557Y7402D01*
G37*
G36*
G01X112184Y3953D02*
G01X112184Y5358D01*
G01X113687Y5358D01*
G01X113687Y3953D01*
G01X112184Y3953D01*
G37*
G36*
G01X112184Y6054D02*
G01X112184Y7456D01*
G01X113687Y7456D01*
G01X113687Y6054D01*
G01X112184Y6054D01*
G37*
G36*
G01X113990Y3450D02*
G01X113990Y4553D01*
G01X115793Y4553D01*
G01X115793Y3450D01*
G01X113990Y3450D01*
G37*
G36*
G01X113990Y6351D02*
G01X113990Y7453D01*
G01X115793Y7453D01*
G01X115793Y6351D01*
G01X113990Y6351D01*
G37*
G36*
G01X116105Y6249D02*
G01X116105Y7451D01*
G01X119110Y7451D01*
G01X119110Y6249D01*
G01X116105Y6249D01*
G37*
G36*
G01X116105Y3247D02*
G01X116105Y4451D01*
G01X119110Y4451D01*
G01X119110Y3247D01*
G01X116105Y3247D01*
G37*
G36*
G01X119433Y1662D02*
G01X119433Y2863D01*
G01X122438Y2863D01*
G01X122438Y1662D01*
G01X119433Y1662D01*
G37*
G36*
G01X119433Y6262D02*
G01X119433Y7463D01*
G01X122438Y7463D01*
G01X122438Y6262D01*
G01X119433Y6262D01*
G37*
G36*
G01X124647Y1944D02*
G01X124647Y2945D01*
G01X126050Y2945D01*
G01X126050Y1944D01*
G01X124647Y1944D01*
G37*
G36*
G01X124647Y3542D02*
G01X124647Y4545D01*
G01X126050Y4545D01*
G01X126050Y3542D01*
G01X124647Y3542D01*
G37*
G36*
G01X123294Y1682D02*
G01X123294Y2236D01*
G01X123847Y2236D01*
G01X123847Y1682D01*
G01X123294Y1682D01*
G37*
G36*
G01X123294Y3034D02*
G01X123294Y3587D01*
G01X123847Y3587D01*
G01X123847Y3034D01*
G01X123294Y3034D01*
G37*
G36*
G01X134348Y6000D02*
G01X134348Y7474D01*
G01X136022Y7474D01*
G01X136022Y6000D01*
G01X134348Y6000D01*
G37*
G36*
G01X134348Y1700D02*
G01X134348Y3173D01*
G01X136022Y3173D01*
G01X136022Y1700D01*
G01X134348Y1700D01*
G37*
G36*
G01X137795Y1695D02*
G01X137795Y4299D01*
G01X140398Y4299D01*
G01X140398Y1695D01*
G01X137795Y1695D01*
G37*
G36*
G01X137795Y6097D02*
G01X137795Y8698D01*
G01X140398Y8698D01*
G01X140398Y6097D01*
G01X137795Y6097D01*
G37*
G36*
G01X142651Y1637D02*
G01X142651Y4639D01*
G01X146654Y4639D01*
G01X146654Y1637D01*
G01X142651Y1637D01*
G37*
G36*
G01X142651Y9036D02*
G01X142651Y12040D01*
G01X146654Y12040D01*
G01X146654Y9036D01*
G01X142651Y9036D01*
G37*
G36*
G01X130832Y6112D02*
G01X130832Y7717D01*
G01X133136Y7717D01*
G01X133136Y6112D01*
G01X130832Y6112D01*
G37*
G36*
G01X130832Y1713D02*
G01X130832Y3316D01*
G01X133136Y3316D01*
G01X133136Y1713D01*
G01X130832Y1713D01*
G37*
G36*
G01X126641Y3976D02*
G01X126641Y4809D01*
G01X127675Y4809D01*
G01X127675Y3976D01*
G01X126641Y3976D01*
G37*
G36*
G01X126641Y1675D02*
G01X126641Y2508D01*
G01X127675Y2508D01*
G01X127675Y1675D01*
G01X126641Y1675D01*
G37*
G36*
G01X128188Y1680D02*
G01X128188Y3283D01*
G01X130192Y3283D01*
G01X130192Y1680D01*
G01X128188Y1680D01*
G37*
G36*
G01X128188Y5081D02*
G01X128188Y6684D01*
G01X130192Y6684D01*
G01X130192Y5081D01*
G01X128188Y5081D01*
G37*
G36*
G01X104523Y2315D02*
G01X104523Y2818D01*
G01X105026Y2818D01*
G01X105026Y2315D01*
G01X104523Y2315D01*
G37*
G36*
G01X104523Y2914D02*
G01X104523Y3417D01*
G01X105026Y3417D01*
G01X105026Y2914D01*
G01X104523Y2914D01*
G37*
G36*
G01X107167Y2505D02*
G01X107167Y3209D01*
G01X107970Y3209D01*
G01X107970Y2505D01*
G01X107167Y2505D01*
G37*
G36*
G01X107167Y3503D02*
G01X107167Y4207D01*
G01X107970Y4207D01*
G01X107970Y3503D01*
G01X107167Y3503D01*
G37*
G36*
G01X109557Y2424D02*
G01X109557Y3227D01*
G01X110660Y3227D01*
G01X110660Y2424D01*
G01X109557Y2424D01*
G37*
G36*
G01X109557Y3923D02*
G01X109557Y4725D01*
G01X110660Y4725D01*
G01X110660Y3923D01*
G01X109557Y3923D01*
G37*
G36*
G01X104523Y4652D02*
G01X104523Y5154D01*
G01X105026Y5154D01*
G01X105026Y4652D01*
G01X104523Y4652D01*
G37*
G36*
G01X104523Y5251D02*
G01X104523Y5754D01*
G01X105026Y5754D01*
G01X105026Y5251D01*
G01X104523Y5251D01*
G37*
G36*
G01X124647Y5030D02*
G01X124647Y6031D01*
G01X126050Y6031D01*
G01X126050Y5030D01*
G01X124647Y5030D01*
G37*
G36*
G01X124647Y6628D02*
G01X124647Y7631D01*
G01X126050Y7631D01*
G01X126050Y6628D01*
G01X124647Y6628D01*
G37*
M00*
M02*
