G04 Layer: TopSilkLayer*
G04 EasyEDA v6.3.43, 2020-06-04T01:39:48+01:00*
G04 c5e8e4d559e34370b9c9d94393fceecd,c23c5ad5fcdd482d9714491510f6a4f3,10*
G04 Gerber Generator version 0.2*
G04 Scale: 100 percent, Rotated: No, Reflected: No *
G04 Dimensions in millimeters *
G04 leading zeros omitted , absolute positions ,3 integer and 3 decimal *
%FSLAX33Y33*%
%MOMM*%
G90*
G71D02*

%ADD10C,0.254000*%
%ADD12C,0.299999*%
%ADD56C,0.150012*%
%ADD57C,0.200000*%
%ADD58C,0.100000*%
%ADD59C,0.152400*%
%ADD60C,0.248920*%
%ADD62C,0.089992*%

%LPD*%
G54D56*
G01X82870Y8778D02*
G01X82870Y9979D01*
G01X83640Y8778D02*
G01X82870Y8778D01*
G01X84770Y8778D02*
G01X84770Y9979D01*
G01X84000Y8778D02*
G01X84770Y8778D01*
G01X84000Y9979D02*
G01X84770Y9979D01*
G01X83640Y9979D02*
G01X82870Y9979D01*
G01X82864Y11757D02*
G01X82864Y10556D01*
G01X82094Y11757D02*
G01X82864Y11757D01*
G01X80964Y11757D02*
G01X80964Y10556D01*
G01X81734Y11757D02*
G01X80964Y11757D01*
G01X81734Y10556D02*
G01X80964Y10556D01*
G01X82094Y10556D02*
G01X82864Y10556D01*
G01X82602Y12080D02*
G01X83222Y12080D01*
G01X82242Y12080D02*
G01X81623Y12080D01*
G01X82242Y13280D02*
G01X81623Y13280D01*
G01X81472Y13080D02*
G01X81472Y12281D01*
G01X82602Y13280D02*
G01X83222Y13280D01*
G01X83372Y13080D02*
G01X83372Y12281D01*
G01X81472Y13130D02*
G01X81472Y13080D01*
G01X81472Y12231D02*
G01X81472Y12281D01*
G01X83372Y13131D02*
G01X83372Y13080D01*
G01X83372Y12230D02*
G01X83372Y12281D01*
G01X85926Y9979D02*
G01X85306Y9979D01*
G01X86286Y9979D02*
G01X86905Y9979D01*
G01X86286Y8779D02*
G01X86905Y8779D01*
G01X87056Y8979D02*
G01X87056Y9779D01*
G01X85926Y8779D02*
G01X85306Y8779D01*
G01X85156Y8979D02*
G01X85156Y9779D01*
G01X87056Y8929D02*
G01X87056Y8979D01*
G01X87056Y9828D02*
G01X87056Y9779D01*
G01X85156Y8928D02*
G01X85156Y8979D01*
G01X85156Y9829D02*
G01X85156Y9779D01*
G54D10*
G01X108007Y15567D02*
G01X108007Y8099D01*
G01X100996Y15567D02*
G01X100996Y14221D01*
G01X101962Y14221D01*
G01X101962Y11986D01*
G01X101022Y11986D01*
G01X101962Y11986D02*
G01X101962Y9649D01*
G01X100996Y9649D01*
G01X100996Y8125D01*
G01X108007Y8747D02*
G01X108007Y15090D01*
G01X104238Y15567D02*
G01X100996Y15567D01*
G01X100996Y15567D02*
G01X100996Y14221D01*
G01X104238Y8099D02*
G01X100996Y8099D01*
G01X96648Y24D02*
G01X88009Y24D01*
G01X88840Y7179D02*
G01X88952Y7179D01*
G01X92207Y7179D02*
G01X92454Y7179D01*
G01X95707Y7179D02*
G01X95817Y7179D01*
G01X96648Y5823D02*
G01X96648Y3276D01*
G01X96648Y313D02*
G01X96648Y24D01*
G01X88009Y24D02*
G01X88009Y313D01*
G01X88009Y3276D02*
G01X88009Y5823D01*
G01X44329Y16145D02*
G01X43313Y16145D01*
G01X44329Y18177D02*
G01X43313Y18177D01*
G01X41622Y16617D02*
G01X41622Y17704D01*
G01X42455Y15637D02*
G01X45188Y15637D01*
G01X46021Y16617D02*
G01X46021Y17704D01*
G01X45203Y18710D02*
G01X42440Y18710D01*
G54D56*
G01X89468Y10487D02*
G01X89468Y9286D01*
G01X88698Y10487D02*
G01X89468Y10487D01*
G01X87568Y10487D02*
G01X87568Y9286D01*
G01X88338Y10487D02*
G01X87568Y10487D01*
G01X88338Y9286D02*
G01X87568Y9286D01*
G01X88698Y9286D02*
G01X89468Y9286D01*
G01X13886Y4255D02*
G01X14324Y4694D01*
G01X13631Y4001D02*
G01X13193Y3563D01*
G01X12783Y4849D02*
G01X12345Y4411D01*
G01X12380Y4163D02*
G01X12946Y3598D01*
G01X13037Y5104D02*
G01X13476Y5542D01*
G01X13723Y5507D02*
G01X14289Y4941D01*
G01X12345Y4199D02*
G01X12380Y4163D01*
G01X12981Y3563D02*
G01X12946Y3598D01*
G01X13688Y5542D02*
G01X13723Y5507D01*
G01X14324Y4906D02*
G01X14289Y4941D01*
G01X10878Y6755D02*
G01X10440Y6316D01*
G01X11133Y7009D02*
G01X11571Y7447D01*
G01X11981Y6161D02*
G01X12419Y6599D01*
G01X12384Y6847D02*
G01X11818Y7412D01*
G01X11727Y5906D02*
G01X11288Y5468D01*
G01X11041Y5503D02*
G01X10475Y6069D01*
G01X12419Y6811D02*
G01X12384Y6847D01*
G01X11783Y7447D02*
G01X11818Y7412D01*
G01X11076Y5468D02*
G01X11041Y5503D01*
G01X10440Y6104D02*
G01X10475Y6069D01*
G01X91873Y14239D02*
G01X92493Y14239D01*
G01X91513Y14239D02*
G01X90894Y14239D01*
G01X91513Y15439D02*
G01X90894Y15439D01*
G01X90743Y15239D02*
G01X90743Y14440D01*
G01X91873Y15439D02*
G01X92493Y15439D01*
G01X92643Y15239D02*
G01X92643Y14440D01*
G01X90743Y15289D02*
G01X90743Y15239D01*
G01X90743Y14390D02*
G01X90743Y14440D01*
G01X92643Y15290D02*
G01X92643Y15239D01*
G01X92643Y14389D02*
G01X92643Y14440D01*
G01X92000Y17160D02*
G01X92620Y17160D01*
G01X91640Y17160D02*
G01X91021Y17160D01*
G01X91640Y18360D02*
G01X91021Y18360D01*
G01X90870Y18160D02*
G01X90870Y17361D01*
G01X92000Y18360D02*
G01X92620Y18360D01*
G01X92770Y18160D02*
G01X92770Y17361D01*
G01X90870Y18210D02*
G01X90870Y18160D01*
G01X90870Y17311D02*
G01X90870Y17361D01*
G01X92770Y18211D02*
G01X92770Y18160D01*
G01X92770Y17310D02*
G01X92770Y17361D01*
G01X72355Y17700D02*
G01X71154Y17700D01*
G01X72355Y18470D02*
G01X72355Y17700D01*
G01X72355Y19600D02*
G01X71154Y19600D01*
G01X72355Y18830D02*
G01X72355Y19600D01*
G01X71154Y18830D02*
G01X71154Y19600D01*
G01X71154Y18470D02*
G01X71154Y17700D01*
G01X101279Y7693D02*
G01X101279Y6492D01*
G01X100509Y7693D02*
G01X101279Y7693D01*
G01X99379Y7693D02*
G01X99379Y6492D01*
G01X100149Y7693D02*
G01X99379Y7693D01*
G01X100149Y6492D02*
G01X99379Y6492D01*
G01X100509Y6492D02*
G01X101279Y6492D01*
G01X97316Y6137D02*
G01X98517Y6137D01*
G01X97316Y5367D02*
G01X97316Y6137D01*
G01X97316Y4237D02*
G01X98517Y4237D01*
G01X97316Y5007D02*
G01X97316Y4237D01*
G01X98517Y5007D02*
G01X98517Y4237D01*
G01X98517Y5367D02*
G01X98517Y6137D01*
G01X38674Y15509D02*
G01X38674Y16710D01*
G01X39444Y15509D02*
G01X38674Y15509D01*
G01X40574Y15509D02*
G01X40574Y16710D01*
G01X39804Y15509D02*
G01X40574Y15509D01*
G01X39804Y16710D02*
G01X40574Y16710D01*
G01X39444Y16710D02*
G01X38674Y16710D01*
G01X88452Y19758D02*
G01X88452Y18557D01*
G01X87682Y19758D02*
G01X88452Y19758D01*
G01X86552Y19758D02*
G01X86552Y18557D01*
G01X87322Y19758D02*
G01X86552Y19758D01*
G01X87322Y18557D02*
G01X86552Y18557D01*
G01X87682Y18557D02*
G01X88452Y18557D01*
G01X68037Y17700D02*
G01X66836Y17700D01*
G01X68037Y18470D02*
G01X68037Y17700D01*
G01X68037Y19600D02*
G01X66836Y19600D01*
G01X68037Y18830D02*
G01X68037Y19600D01*
G01X66836Y18830D02*
G01X66836Y19600D01*
G01X66836Y18470D02*
G01X66836Y17700D01*
G54D10*
G01X88099Y18077D02*
G01X88914Y18077D01*
G01X88914Y17418D01*
G01X88914Y15817D02*
G01X88914Y15158D01*
G01X88914Y15817D01*
G01X88914Y15158D01*
G01X88099Y15158D01*
G54D57*
G01X87365Y16917D02*
G01X87365Y16318D01*
G54D10*
G01X100648Y5403D02*
G01X100648Y6218D01*
G01X101307Y6218D01*
G01X102908Y6218D02*
G01X103567Y6218D01*
G01X102908Y6218D01*
G01X103567Y6218D01*
G01X103567Y5403D01*
G54D57*
G01X101808Y4669D02*
G01X102407Y4669D01*
G54D58*
G01X97351Y17561D02*
G01X97351Y16710D01*
G01X96450Y17561D02*
G01X96450Y16710D01*
G01X97351Y17961D02*
G01X97351Y18711D01*
G01X96450Y17961D02*
G01X96450Y18711D01*
G01X97351Y16710D02*
G01X96450Y16710D01*
G01X97151Y18911D02*
G01X96650Y18911D01*
G01X97351Y18711D02*
G01X97351Y18711D01*
G01X97151Y18911D01*
G01X96450Y18711D02*
G01X96650Y18911D01*
G01X97100Y17671D02*
G01X96701Y17671D01*
G01X96901Y17671D02*
G01X96901Y17856D01*
G54D57*
G01X70695Y18077D02*
G01X70695Y19476D01*
G01X68496Y18077D02*
G01X68496Y19476D01*
G54D56*
G01X9712Y12623D02*
G01X9712Y11722D01*
G01X8942Y12772D02*
G01X9612Y12772D01*
G01X7812Y12623D02*
G01X7812Y11722D01*
G01X8582Y12772D02*
G01X7912Y12772D01*
G01X8582Y11572D02*
G01X7912Y11572D01*
G01X8942Y11572D02*
G01X9612Y11572D01*
G01X7812Y12623D02*
G01X7812Y12672D01*
G01X7912Y12772D01*
G01X9712Y12623D02*
G01X9712Y12673D01*
G01X9612Y12772D01*
G01X9712Y11722D02*
G01X9712Y11672D01*
G01X9612Y11572D01*
G01X7812Y11722D02*
G01X7812Y11673D01*
G01X7912Y11572D01*
G01X101285Y2047D02*
G01X101285Y3248D01*
G01X102055Y2047D02*
G01X101285Y2047D01*
G01X103185Y2047D02*
G01X103185Y3248D01*
G01X102415Y2047D02*
G01X103185Y2047D01*
G01X102415Y3248D02*
G01X103185Y3248D01*
G01X102055Y3248D02*
G01X101285Y3248D01*
G01X37938Y15654D02*
G01X37938Y16274D01*
G01X37938Y15294D02*
G01X37938Y14675D01*
G01X36738Y15294D02*
G01X36738Y14675D01*
G01X36938Y14524D02*
G01X37737Y14524D01*
G01X36738Y15654D02*
G01X36738Y16274D01*
G01X36938Y16424D02*
G01X37737Y16424D01*
G01X36888Y14524D02*
G01X36938Y14524D01*
G01X37787Y14524D02*
G01X37737Y14524D01*
G01X36887Y16424D02*
G01X36938Y16424D01*
G01X37788Y16424D02*
G01X37737Y16424D01*
G01X6257Y12501D02*
G01X6257Y11881D01*
G01X6257Y12861D02*
G01X6257Y13480D01*
G01X7457Y12861D02*
G01X7457Y13480D01*
G01X7257Y13631D02*
G01X6458Y13631D01*
G01X7457Y12501D02*
G01X7457Y11881D01*
G01X7257Y11731D02*
G01X6458Y11731D01*
G01X7307Y13631D02*
G01X7257Y13631D01*
G01X6408Y13631D02*
G01X6458Y13631D01*
G01X7308Y11731D02*
G01X7257Y11731D01*
G01X6407Y11731D02*
G01X6458Y11731D01*
G54D10*
G01X92982Y15411D02*
G01X92982Y17211D01*
G01X94932Y15411D02*
G01X94132Y15411D01*
G01X96082Y15411D02*
G01X96082Y17211D01*
G54D57*
G01X92953Y9464D02*
G01X92953Y10563D01*
G01X91453Y9464D02*
G01X91452Y10563D01*
G54D56*
G01X37539Y19377D02*
G01X36919Y19377D01*
G01X37899Y19377D02*
G01X38518Y19377D01*
G01X37899Y18177D02*
G01X38518Y18177D01*
G01X38669Y18377D02*
G01X38669Y19177D01*
G01X37539Y18177D02*
G01X36919Y18177D01*
G01X36769Y18377D02*
G01X36769Y19177D01*
G01X38669Y18327D02*
G01X38669Y18377D01*
G01X38669Y19226D02*
G01X38669Y19177D01*
G01X36769Y18326D02*
G01X36769Y18377D01*
G01X36769Y19227D02*
G01X36769Y19177D01*
G01X39803Y16906D02*
G01X40423Y16906D01*
G01X39443Y16906D02*
G01X38824Y16906D01*
G01X39443Y18106D02*
G01X38824Y18106D01*
G01X38673Y17906D02*
G01X38673Y17107D01*
G01X39803Y18106D02*
G01X40423Y18106D01*
G01X40573Y17906D02*
G01X40573Y17107D01*
G01X38673Y17956D02*
G01X38673Y17906D01*
G01X38673Y17057D02*
G01X38673Y17107D01*
G01X40573Y17957D02*
G01X40573Y17906D01*
G01X40573Y17056D02*
G01X40573Y17107D01*
G54D10*
G01X94649Y8490D02*
G01X95850Y8490D01*
G01X96050Y10541D02*
G01X96050Y11541D01*
G01X94449Y10541D02*
G01X94449Y11541D01*
G01X96050Y9741D02*
G01X96050Y8741D01*
G01X94449Y9741D02*
G01X94449Y8741D01*
G01X94649Y11791D02*
G01X95850Y11791D01*
G01X84036Y15618D02*
G01X84036Y17617D01*
G01X85635Y15618D02*
G01X85635Y17617D01*
G01X84036Y16266D02*
G01X85635Y16266D01*
G54D56*
G01X62685Y16837D02*
G01X62065Y16837D01*
G01X63045Y16837D02*
G01X63664Y16837D01*
G01X63045Y15637D02*
G01X63664Y15637D01*
G01X63815Y15837D02*
G01X63815Y16637D01*
G01X62685Y15637D02*
G01X62065Y15637D01*
G01X61915Y15837D02*
G01X61915Y16637D01*
G01X63815Y15787D02*
G01X63815Y15837D01*
G01X63815Y16686D02*
G01X63815Y16637D01*
G01X61915Y15786D02*
G01X61915Y15837D01*
G01X61915Y16687D02*
G01X61915Y16637D01*
G01X20793Y5494D02*
G01X20793Y6114D01*
G01X20793Y5134D02*
G01X20793Y4515D01*
G01X19593Y5134D02*
G01X19593Y4515D01*
G01X19793Y4364D02*
G01X20592Y4364D01*
G01X19593Y5494D02*
G01X19593Y6114D01*
G01X19793Y6264D02*
G01X20592Y6264D01*
G01X19743Y4364D02*
G01X19793Y4364D01*
G01X20642Y4364D02*
G01X20592Y4364D01*
G01X19742Y6264D02*
G01X19793Y6264D01*
G01X20643Y6264D02*
G01X20592Y6264D01*
G01X64441Y20462D02*
G01X65061Y20462D01*
G01X64081Y20462D02*
G01X63462Y20462D01*
G01X64081Y21662D02*
G01X63462Y21662D01*
G01X63311Y21462D02*
G01X63311Y20663D01*
G01X64441Y21662D02*
G01X65061Y21662D01*
G01X65211Y21462D02*
G01X65211Y20663D01*
G01X63311Y21512D02*
G01X63311Y21462D01*
G01X63311Y20613D02*
G01X63311Y20663D01*
G01X65211Y21513D02*
G01X65211Y21462D01*
G01X65211Y20612D02*
G01X65211Y20663D01*
G01X99914Y5367D02*
G01X99914Y5987D01*
G01X99914Y5007D02*
G01X99914Y4388D01*
G01X98714Y5007D02*
G01X98714Y4388D01*
G01X98914Y4237D02*
G01X99713Y4237D01*
G01X98714Y5367D02*
G01X98714Y5987D01*
G01X98914Y6137D02*
G01X99713Y6137D01*
G01X98864Y4237D02*
G01X98914Y4237D01*
G01X99763Y4237D02*
G01X99713Y4237D01*
G01X98863Y6137D02*
G01X98914Y6137D01*
G01X99764Y6137D02*
G01X99713Y6137D01*
G01X24436Y16652D02*
G01X25056Y16652D01*
G01X24076Y16652D02*
G01X23457Y16652D01*
G01X24076Y17852D02*
G01X23457Y17852D01*
G01X23306Y17652D02*
G01X23306Y16853D01*
G01X24436Y17852D02*
G01X25056Y17852D01*
G01X25206Y17652D02*
G01X25206Y16853D01*
G01X23306Y17702D02*
G01X23306Y17652D01*
G01X23306Y16803D02*
G01X23306Y16853D01*
G01X25206Y17703D02*
G01X25206Y17652D01*
G01X25206Y16802D02*
G01X25206Y16853D01*
G01X16036Y18089D02*
G01X16036Y17469D01*
G01X16036Y18449D02*
G01X16036Y19068D01*
G01X17236Y18449D02*
G01X17236Y19068D01*
G01X17036Y19219D02*
G01X16237Y19219D01*
G01X17236Y18089D02*
G01X17236Y17469D01*
G01X17036Y17319D02*
G01X16237Y17319D01*
G01X17086Y19219D02*
G01X17036Y19219D01*
G01X16187Y19219D02*
G01X16237Y19219D01*
G01X17087Y17319D02*
G01X17036Y17319D01*
G01X16186Y17319D02*
G01X16237Y17319D01*
G54D10*
G01X13468Y9465D02*
G01X16342Y6591D01*
G01X14725Y4974D01*
G01X11851Y7848D01*
G01X13468Y9465D01*
G54D56*
G01X14512Y18089D02*
G01X14512Y17469D01*
G01X14512Y18449D02*
G01X14512Y19068D01*
G01X15712Y18449D02*
G01X15712Y19068D01*
G01X15512Y19219D02*
G01X14713Y19219D01*
G01X15712Y18089D02*
G01X15712Y17469D01*
G01X15512Y17319D02*
G01X14713Y17319D01*
G01X15562Y19219D02*
G01X15512Y19219D01*
G01X14663Y19219D02*
G01X14713Y19219D01*
G01X15563Y17319D02*
G01X15512Y17319D01*
G01X14662Y17319D02*
G01X14713Y17319D01*
G54D10*
G01X33639Y17880D02*
G01X36438Y17880D01*
G01X36438Y17880D02*
G01X36438Y16879D01*
G01X33639Y16879D01*
G01X33639Y17880D01*
G54D57*
G01X22833Y16406D02*
G01X23283Y16406D01*
G01X23283Y15956D01*
G01X22833Y8956D02*
G01X23283Y8956D01*
G01X23283Y9406D01*
G01X15833Y9406D02*
G01X15833Y8956D01*
G01X16283Y8956D01*
G01X15833Y15956D02*
G01X15833Y16406D01*
G01X16283Y16406D01*
G54D10*
G01X61238Y20149D02*
G01X64237Y20149D01*
G01X64237Y19950D01*
G01X64237Y17349D02*
G01X64237Y17151D01*
G01X61238Y20149D02*
G01X61238Y19950D01*
G01X61238Y17349D02*
G01X61238Y17126D01*
G01X61238Y17126D02*
G01X62191Y17126D01*
G01X63284Y17151D02*
G01X64237Y17151D01*
G54D56*
G01X9989Y12764D02*
G01X10428Y12326D01*
G01X9735Y13019D02*
G01X9297Y13457D01*
G01X10583Y13867D02*
G01X10145Y14305D01*
G01X9897Y14270D02*
G01X9332Y13704D01*
G01X10838Y13613D02*
G01X11276Y13174D01*
G01X11241Y12927D02*
G01X10675Y12361D01*
G01X9933Y14305D02*
G01X9897Y14270D01*
G01X9296Y13669D02*
G01X9332Y13704D01*
G01X11276Y12962D02*
G01X11241Y12927D01*
G01X10640Y12326D02*
G01X10675Y12361D01*
G54D59*
G01X85674Y10445D02*
G01X86055Y10445D01*
G01X86055Y10826D01*
G01X85674Y12630D02*
G01X86055Y12630D01*
G01X86055Y12249D01*
G01X84251Y12630D02*
G01X83870Y12630D01*
G01X83870Y12249D01*
G01X83845Y10496D02*
G01X83845Y10928D01*
G01X83845Y10458D01*
G01X83879Y10411D02*
G01X84001Y10411D01*
G54D57*
G01X3996Y19155D02*
G01X647Y19155D01*
G01X647Y11054D01*
G01X647Y6865D02*
G01X647Y5605D01*
G01X5877Y5605D01*
G01X5877Y6855D01*
G01X5877Y9054D02*
G01X5877Y17255D01*
G54D10*
G01X47308Y16343D02*
G01X47308Y19943D01*
G01X55307Y19943D02*
G01X55307Y18143D01*
G01X55307Y16343D02*
G01X55307Y18343D01*
G01X47308Y19943D02*
G01X47937Y19943D01*
G01X49598Y19943D02*
G01X50477Y19943D01*
G01X52138Y19943D02*
G01X53017Y19943D01*
G01X54678Y19943D02*
G01X55307Y19943D01*
G01X47308Y16343D02*
G01X47937Y16343D01*
G01X49598Y16343D02*
G01X50477Y16343D01*
G01X52138Y16343D02*
G01X53017Y16343D01*
G01X54678Y16343D02*
G01X55307Y16343D01*

%LPD*%
G36*
G01X93167Y3501D02*
G01X92636Y3501D01*
G01X92636Y2775D01*
G01X93182Y2775D01*
G01X93233Y2779D01*
G01X93278Y2790D01*
G01X93319Y2809D01*
G01X93352Y2834D01*
G01X93379Y2866D01*
G01X93399Y2904D01*
G01X93412Y2947D01*
G01X93416Y2995D01*
G01X93407Y3053D01*
G01X93383Y3101D01*
G01X93347Y3136D01*
G01X93301Y3158D01*
G01X93341Y3177D01*
G01X93373Y3208D01*
G01X93395Y3253D01*
G01X93403Y3313D01*
G01X93386Y3395D01*
G01X93338Y3454D01*
G01X93264Y3489D01*
G01X93167Y3501D01*
G37*

%LPC*%
G36*
G01X93118Y3374D02*
G01X92763Y3374D01*
G01X92763Y2902D01*
G01X93131Y2902D01*
G01X93194Y2906D01*
G01X93244Y2922D01*
G01X93277Y2951D01*
G01X93289Y2995D01*
G01X93281Y3036D01*
G01X93260Y3065D01*
G01X93224Y3083D01*
G01X93177Y3089D01*
G01X92854Y3089D01*
G01X92854Y3199D01*
G01X93169Y3199D01*
G01X93215Y3203D01*
G01X93248Y3218D01*
G01X93267Y3245D01*
G01X93273Y3285D01*
G01X93262Y3331D01*
G01X93231Y3358D01*
G01X93182Y3371D01*
G01X93118Y3374D01*
G37*

%LPD*%
G36*
G01X92491Y3501D02*
G01X91970Y3501D01*
G01X91874Y3486D01*
G01X91803Y3443D01*
G01X91759Y3379D01*
G01X91744Y3298D01*
G01X91760Y3215D01*
G01X91805Y3149D01*
G01X91875Y3105D01*
G01X91968Y3089D01*
G01X92301Y3089D01*
G01X92346Y3084D01*
G01X92380Y3066D01*
G01X92400Y3037D01*
G01X92407Y2995D01*
G01X92400Y2957D01*
G01X92380Y2927D01*
G01X92346Y2908D01*
G01X92301Y2902D01*
G01X91757Y2902D01*
G01X91757Y2775D01*
G01X92301Y2775D01*
G01X92354Y2779D01*
G01X92400Y2791D01*
G01X92439Y2810D01*
G01X92471Y2835D01*
G01X92495Y2867D01*
G01X92513Y2903D01*
G01X92523Y2944D01*
G01X92527Y2988D01*
G01X92523Y3037D01*
G01X92512Y3080D01*
G01X92494Y3116D01*
G01X92469Y3146D01*
G01X92437Y3169D01*
G01X92398Y3185D01*
G01X92352Y3195D01*
G01X92301Y3199D01*
G01X91968Y3199D01*
G01X91930Y3205D01*
G01X91901Y3222D01*
G01X91883Y3249D01*
G01X91876Y3285D01*
G01X91883Y3323D01*
G01X91901Y3351D01*
G01X91931Y3368D01*
G01X91970Y3374D01*
G01X92491Y3374D01*
G01X92491Y3501D01*
G37*

%LPD*%
G36*
G01X90987Y3501D02*
G01X90855Y3501D01*
G01X90855Y3095D01*
G01X90858Y3041D01*
G01X90865Y2992D01*
G01X90878Y2949D01*
G01X90895Y2910D01*
G01X90918Y2875D01*
G01X90947Y2846D01*
G01X90982Y2821D01*
G01X91023Y2800D01*
G01X91070Y2785D01*
G01X91123Y2773D01*
G01X91182Y2766D01*
G01X91249Y2764D01*
G01X91316Y2766D01*
G01X91376Y2773D01*
G01X91429Y2785D01*
G01X91477Y2800D01*
G01X91517Y2821D01*
G01X91552Y2846D01*
G01X91580Y2875D01*
G01X91603Y2910D01*
G01X91621Y2949D01*
G01X91633Y2992D01*
G01X91640Y3041D01*
G01X91643Y3095D01*
G01X91643Y3501D01*
G01X91518Y3501D01*
G01X91518Y3095D01*
G01X91515Y3044D01*
G01X91505Y3001D01*
G01X91487Y2966D01*
G01X91460Y2938D01*
G01X91424Y2916D01*
G01X91378Y2900D01*
G01X91321Y2892D01*
G01X91252Y2889D01*
G01X91183Y2892D01*
G01X91127Y2900D01*
G01X91081Y2916D01*
G01X91045Y2938D01*
G01X91019Y2966D01*
G01X91001Y3001D01*
G01X90990Y3044D01*
G01X90987Y3095D01*
G01X90987Y3501D01*
G37*

%LPD*%

%LPD*%
G36*
G01X93345Y2310D02*
G01X92943Y2310D01*
G01X92943Y2200D01*
G01X93345Y2200D01*
G01X93345Y2310D01*
G37*

%LPD*%
G36*
G01X94218Y2612D02*
G01X93695Y2612D01*
G01X93599Y2597D01*
G01X93529Y2554D01*
G01X93486Y2490D01*
G01X93472Y2409D01*
G01X93487Y2326D01*
G01X93530Y2260D01*
G01X93600Y2216D01*
G01X93692Y2200D01*
G01X94028Y2200D01*
G01X94073Y2195D01*
G01X94107Y2177D01*
G01X94127Y2148D01*
G01X94134Y2106D01*
G01X94127Y2068D01*
G01X94107Y2038D01*
G01X94073Y2019D01*
G01X94028Y2013D01*
G01X93482Y2013D01*
G01X93482Y1886D01*
G01X94028Y1886D01*
G01X94081Y1890D01*
G01X94127Y1902D01*
G01X94166Y1921D01*
G01X94198Y1946D01*
G01X94222Y1978D01*
G01X94240Y2014D01*
G01X94250Y2055D01*
G01X94254Y2099D01*
G01X94250Y2148D01*
G01X94239Y2191D01*
G01X94221Y2227D01*
G01X94196Y2257D01*
G01X94164Y2280D01*
G01X94125Y2296D01*
G01X94080Y2306D01*
G01X94028Y2310D01*
G01X93695Y2310D01*
G01X93657Y2316D01*
G01X93628Y2333D01*
G01X93610Y2360D01*
G01X93604Y2396D01*
G01X93610Y2434D01*
G01X93627Y2462D01*
G01X93656Y2479D01*
G01X93695Y2485D01*
G01X94218Y2485D01*
G01X94218Y2612D01*
G37*

%LPD*%
G36*
G01X93372Y2612D02*
G01X92725Y2612D01*
G01X92725Y1886D01*
G01X93372Y1886D01*
G01X93372Y2013D01*
G01X92849Y2013D01*
G01X92849Y2485D01*
G01X93372Y2485D01*
G01X93372Y2612D01*
G37*

%LPD*%
G36*
G01X92265Y2612D02*
G01X92087Y2612D01*
G01X92014Y2605D01*
G01X91946Y2587D01*
G01X91886Y2556D01*
G01X91835Y2514D01*
G01X91792Y2463D01*
G01X91761Y2402D01*
G01X91741Y2333D01*
G01X91734Y2256D01*
G01X91741Y2180D01*
G01X91761Y2110D01*
G01X91792Y2047D01*
G01X91835Y1992D01*
G01X91886Y1947D01*
G01X91946Y1914D01*
G01X92014Y1893D01*
G01X92087Y1886D01*
G01X92265Y1886D01*
G01X92315Y1889D01*
G01X92363Y1898D01*
G01X92407Y1914D01*
G01X92448Y1935D01*
G01X92486Y1961D01*
G01X92520Y1992D01*
G01X92549Y2027D01*
G01X92574Y2066D01*
G01X92594Y2110D01*
G01X92608Y2156D01*
G01X92618Y2205D01*
G01X92621Y2256D01*
G01X92614Y2332D01*
G01X92594Y2401D01*
G01X92563Y2462D01*
G01X92521Y2513D01*
G01X92469Y2555D01*
G01X92408Y2586D01*
G01X92340Y2605D01*
G01X92265Y2612D01*
G37*

%LPC*%
G36*
G01X92265Y2485D02*
G01X92087Y2485D01*
G01X92040Y2480D01*
G01X91997Y2468D01*
G01X91959Y2447D01*
G01X91926Y2419D01*
G01X91899Y2385D01*
G01X91878Y2346D01*
G01X91866Y2301D01*
G01X91861Y2251D01*
G01X91866Y2201D01*
G01X91878Y2156D01*
G01X91899Y2116D01*
G01X91926Y2081D01*
G01X91959Y2052D01*
G01X91997Y2030D01*
G01X92040Y2017D01*
G01X92087Y2013D01*
G01X92265Y2013D01*
G01X92313Y2017D01*
G01X92357Y2030D01*
G01X92397Y2052D01*
G01X92430Y2081D01*
G01X92457Y2116D01*
G01X92477Y2156D01*
G01X92490Y2201D01*
G01X92494Y2251D01*
G01X92490Y2301D01*
G01X92477Y2346D01*
G01X92457Y2385D01*
G01X92430Y2419D01*
G01X92397Y2447D01*
G01X92357Y2468D01*
G01X92313Y2480D01*
G01X92265Y2485D01*
G37*

%LPD*%
G36*
G01X91594Y2612D02*
G01X91201Y2612D01*
G01X91127Y2605D01*
G01X91060Y2587D01*
G01X91000Y2556D01*
G01X90948Y2514D01*
G01X90906Y2463D01*
G01X90874Y2402D01*
G01X90854Y2333D01*
G01X90848Y2256D01*
G01X90854Y2180D01*
G01X90874Y2110D01*
G01X90906Y2047D01*
G01X90948Y1992D01*
G01X91000Y1947D01*
G01X91060Y1914D01*
G01X91127Y1893D01*
G01X91201Y1886D01*
G01X91638Y1886D01*
G01X91638Y2310D01*
G01X91183Y2310D01*
G01X91183Y2200D01*
G01X91511Y2200D01*
G01X91511Y2013D01*
G01X91201Y2013D01*
G01X91153Y2017D01*
G01X91110Y2030D01*
G01X91071Y2052D01*
G01X91038Y2081D01*
G01X91011Y2116D01*
G01X90991Y2156D01*
G01X90979Y2201D01*
G01X90975Y2251D01*
G01X90979Y2301D01*
G01X90991Y2346D01*
G01X91011Y2385D01*
G01X91038Y2419D01*
G01X91071Y2447D01*
G01X91110Y2468D01*
G01X91153Y2480D01*
G01X91201Y2485D01*
G01X91594Y2485D01*
G01X91594Y2612D01*
G37*

%LPD*%

%LPD*%
G36*
G01X94122Y1723D02*
G01X93601Y1723D01*
G01X93601Y997D01*
G01X93726Y997D01*
G01X93726Y1596D01*
G01X94122Y1596D01*
G01X94181Y1587D01*
G01X94225Y1561D01*
G01X94252Y1518D01*
G01X94261Y1456D01*
G01X94252Y1394D01*
G01X94226Y1349D01*
G01X94182Y1321D01*
G01X94122Y1311D01*
G01X93819Y1311D01*
G01X93819Y1200D01*
G01X94091Y1200D01*
G01X94277Y997D01*
G01X94454Y997D01*
G01X94236Y1217D01*
G01X94299Y1254D01*
G01X94346Y1307D01*
G01X94376Y1375D01*
G01X94386Y1459D01*
G01X94381Y1517D01*
G01X94368Y1569D01*
G01X94346Y1614D01*
G01X94317Y1652D01*
G01X94279Y1682D01*
G01X94234Y1705D01*
G01X94181Y1718D01*
G01X94122Y1723D01*
G37*

%LPD*%
G36*
G01X93202Y1723D02*
G01X92679Y1723D01*
G01X92679Y997D01*
G01X92806Y997D01*
G01X92806Y1596D01*
G01X93202Y1596D01*
G01X93260Y1587D01*
G01X93303Y1561D01*
G01X93330Y1518D01*
G01X93339Y1456D01*
G01X93331Y1394D01*
G01X93305Y1349D01*
G01X93262Y1321D01*
G01X93202Y1311D01*
G01X92897Y1311D01*
G01X92897Y1200D01*
G01X93169Y1200D01*
G01X93355Y997D01*
G01X93535Y997D01*
G01X93317Y1217D01*
G01X93380Y1254D01*
G01X93427Y1307D01*
G01X93456Y1375D01*
G01X93466Y1459D01*
G01X93462Y1517D01*
G01X93448Y1569D01*
G01X93426Y1614D01*
G01X93396Y1652D01*
G01X93358Y1682D01*
G01X93313Y1705D01*
G01X93261Y1718D01*
G01X93202Y1723D01*
G37*

%LPD*%
G36*
G01X92280Y1723D02*
G01X91760Y1723D01*
G01X91760Y997D01*
G01X91884Y997D01*
G01X91884Y1596D01*
G01X92280Y1596D01*
G01X92339Y1587D01*
G01X92382Y1561D01*
G01X92410Y1518D01*
G01X92420Y1456D01*
G01X92411Y1394D01*
G01X92384Y1349D01*
G01X92341Y1321D01*
G01X92280Y1311D01*
G01X91978Y1311D01*
G01X91978Y1200D01*
G01X92250Y1200D01*
G01X92433Y997D01*
G01X92613Y997D01*
G01X92395Y1217D01*
G01X92458Y1254D01*
G01X92505Y1307D01*
G01X92534Y1375D01*
G01X92544Y1459D01*
G01X92540Y1517D01*
G01X92526Y1569D01*
G01X92504Y1614D01*
G01X92474Y1652D01*
G01X92436Y1682D01*
G01X92391Y1705D01*
G01X92339Y1718D01*
G01X92280Y1723D01*
G37*

%LPD*%
G36*
G01X91399Y1723D02*
G01X90865Y1723D01*
G01X90865Y997D01*
G01X91414Y997D01*
G01X91465Y1001D01*
G01X91511Y1012D01*
G01X91551Y1031D01*
G01X91584Y1056D01*
G01X91611Y1088D01*
G01X91631Y1126D01*
G01X91644Y1169D01*
G01X91648Y1217D01*
G01X91639Y1275D01*
G01X91615Y1323D01*
G01X91579Y1358D01*
G01X91533Y1380D01*
G01X91572Y1399D01*
G01X91604Y1430D01*
G01X91627Y1475D01*
G01X91635Y1535D01*
G01X91618Y1617D01*
G01X91570Y1676D01*
G01X91496Y1711D01*
G01X91399Y1723D01*
G37*

%LPC*%
G36*
G01X91351Y1596D02*
G01X90992Y1596D01*
G01X90992Y1124D01*
G01X91361Y1124D01*
G01X91424Y1128D01*
G01X91474Y1144D01*
G01X91507Y1173D01*
G01X91518Y1217D01*
G01X91511Y1258D01*
G01X91490Y1287D01*
G01X91456Y1305D01*
G01X91409Y1311D01*
G01X91086Y1311D01*
G01X91086Y1421D01*
G01X91399Y1421D01*
G01X91447Y1425D01*
G01X91480Y1440D01*
G01X91499Y1467D01*
G01X91506Y1507D01*
G01X91494Y1553D01*
G01X91463Y1580D01*
G01X91415Y1593D01*
G01X91351Y1596D01*
G37*

%LPD*%

%LPD*%
G36*
G01X3083Y18837D02*
G01X2956Y18837D01*
G01X2956Y18157D01*
G01X3083Y18157D01*
G01X3083Y18434D01*
G01X3683Y18434D01*
G01X3683Y18561D01*
G01X3083Y18561D01*
G01X3083Y18837D01*
G37*

%LPD*%
G36*
G01X3083Y18098D02*
G01X2956Y18098D01*
G01X2956Y17705D01*
G01X2963Y17631D01*
G01X2981Y17564D01*
G01X3012Y17503D01*
G01X3054Y17452D01*
G01X3105Y17409D01*
G01X3166Y17378D01*
G01X3235Y17358D01*
G01X3312Y17352D01*
G01X3388Y17358D01*
G01X3458Y17378D01*
G01X3521Y17409D01*
G01X3576Y17452D01*
G01X3621Y17503D01*
G01X3654Y17564D01*
G01X3675Y17631D01*
G01X3683Y17705D01*
G01X3683Y18098D01*
G01X3556Y18098D01*
G01X3556Y17705D01*
G01X3551Y17657D01*
G01X3538Y17614D01*
G01X3516Y17575D01*
G01X3487Y17542D01*
G01X3452Y17515D01*
G01X3412Y17495D01*
G01X3367Y17483D01*
G01X3317Y17479D01*
G01X3267Y17483D01*
G01X3222Y17495D01*
G01X3183Y17515D01*
G01X3149Y17542D01*
G01X3121Y17575D01*
G01X3100Y17614D01*
G01X3088Y17657D01*
G01X3083Y17705D01*
G01X3083Y18098D01*
G37*

%LPD*%
G36*
G01X3368Y17235D02*
G01X3258Y17235D01*
G01X3258Y16831D01*
G01X3368Y16831D01*
G01X3368Y17235D01*
G37*

%LPD*%
G36*
G01X3083Y17263D02*
G01X2956Y17263D01*
G01X2956Y16612D01*
G01X3683Y16612D01*
G01X3683Y17263D01*
G01X3556Y17263D01*
G01X3556Y16739D01*
G01X3083Y16739D01*
G01X3083Y17263D01*
G37*

%LPD*%
G36*
G01X3616Y16491D02*
G01X2948Y16491D01*
G01X2948Y16369D01*
G01X3482Y16369D01*
G01X2971Y15856D01*
G01X2960Y15842D01*
G01X2952Y15829D01*
G01X2947Y15815D01*
G01X2946Y15802D01*
G01X2951Y15775D01*
G01X2967Y15754D01*
G01X2991Y15741D01*
G01X3022Y15736D01*
G01X3683Y15736D01*
G01X3683Y15858D01*
G01X3152Y15858D01*
G01X3665Y16369D01*
G01X3676Y16382D01*
G01X3686Y16397D01*
G01X3691Y16412D01*
G01X3693Y16427D01*
G01X3688Y16452D01*
G01X3673Y16472D01*
G01X3649Y16485D01*
G01X3616Y16491D01*
G37*

%LPD*%
G36*
G01X3616Y15617D02*
G01X2948Y15617D01*
G01X2948Y15495D01*
G01X3482Y15495D01*
G01X2971Y14982D01*
G01X2960Y14969D01*
G01X2952Y14956D01*
G01X2947Y14943D01*
G01X2946Y14928D01*
G01X2951Y14901D01*
G01X2967Y14880D01*
G01X2991Y14867D01*
G01X3022Y14862D01*
G01X3683Y14862D01*
G01X3683Y14984D01*
G01X3152Y14984D01*
G01X3665Y15495D01*
G01X3676Y15509D01*
G01X3686Y15523D01*
G01X3691Y15538D01*
G01X3693Y15553D01*
G01X3688Y15579D01*
G01X3673Y15599D01*
G01X3649Y15612D01*
G01X3616Y15617D01*
G37*

%LPD*%
G36*
G01X3363Y14760D02*
G01X3312Y14763D01*
G01X3236Y14757D01*
G01X3167Y14737D01*
G01X3106Y14706D01*
G01X3055Y14665D01*
G01X3013Y14613D01*
G01X2982Y14552D01*
G01X2963Y14483D01*
G01X2956Y14408D01*
G01X2956Y14230D01*
G01X2963Y14156D01*
G01X2981Y14089D01*
G01X3012Y14029D01*
G01X3054Y13977D01*
G01X3105Y13935D01*
G01X3166Y13903D01*
G01X3235Y13883D01*
G01X3312Y13877D01*
G01X3388Y13883D01*
G01X3458Y13903D01*
G01X3521Y13935D01*
G01X3576Y13977D01*
G01X3621Y14029D01*
G01X3654Y14089D01*
G01X3675Y14156D01*
G01X3683Y14230D01*
G01X3683Y14408D01*
G01X3679Y14458D01*
G01X3670Y14505D01*
G01X3654Y14550D01*
G01X3633Y14591D01*
G01X3607Y14629D01*
G01X3576Y14663D01*
G01X3541Y14692D01*
G01X3502Y14717D01*
G01X3458Y14737D01*
G01X3412Y14751D01*
G01X3363Y14760D01*
G37*

%LPC*%
G36*
G01X3367Y14632D02*
G01X3317Y14636D01*
G01X3267Y14632D01*
G01X3222Y14620D01*
G01X3183Y14599D01*
G01X3149Y14572D01*
G01X3121Y14539D01*
G01X3100Y14500D01*
G01X3088Y14456D01*
G01X3083Y14408D01*
G01X3083Y14230D01*
G01X3088Y14183D01*
G01X3100Y14140D01*
G01X3121Y14101D01*
G01X3149Y14068D01*
G01X3183Y14041D01*
G01X3222Y14021D01*
G01X3267Y14008D01*
G01X3317Y14004D01*
G01X3367Y14008D01*
G01X3412Y14021D01*
G01X3452Y14041D01*
G01X3487Y14068D01*
G01X3516Y14101D01*
G01X3538Y14140D01*
G01X3551Y14183D01*
G01X3556Y14230D01*
G01X3556Y14408D01*
G01X3551Y14456D01*
G01X3538Y14500D01*
G01X3516Y14539D01*
G01X3487Y14572D01*
G01X3452Y14599D01*
G01X3412Y14620D01*
G01X3367Y14632D01*
G37*

%LPD*%
G36*
G01X3083Y13796D02*
G01X2956Y13796D01*
G01X2956Y13402D01*
G01X2963Y13328D01*
G01X2981Y13261D01*
G01X3012Y13201D01*
G01X3054Y13149D01*
G01X3105Y13107D01*
G01X3166Y13075D01*
G01X3235Y13055D01*
G01X3312Y13049D01*
G01X3388Y13055D01*
G01X3458Y13075D01*
G01X3521Y13107D01*
G01X3576Y13149D01*
G01X3621Y13201D01*
G01X3654Y13261D01*
G01X3675Y13328D01*
G01X3683Y13402D01*
G01X3683Y13796D01*
G01X3556Y13796D01*
G01X3556Y13402D01*
G01X3551Y13354D01*
G01X3538Y13311D01*
G01X3516Y13272D01*
G01X3487Y13239D01*
G01X3452Y13212D01*
G01X3412Y13193D01*
G01X3367Y13180D01*
G01X3317Y13176D01*
G01X3267Y13180D01*
G01X3222Y13193D01*
G01X3183Y13213D01*
G01X3149Y13240D01*
G01X3121Y13273D01*
G01X3100Y13312D01*
G01X3088Y13355D01*
G01X3083Y13402D01*
G01X3083Y13796D01*
G37*

%LPD*%
G36*
G01X3406Y12312D02*
G01X2956Y12698D01*
G01X2956Y12538D01*
G01X3291Y12254D01*
G01X2956Y11969D01*
G01X2956Y11799D01*
G01X3406Y12185D01*
G01X3683Y12185D01*
G01X3683Y12312D01*
G01X3406Y12312D01*
G37*

%LPD*%
G36*
G01X3683Y11911D02*
G01X3556Y11911D01*
G01X3556Y11423D01*
G01X2956Y11423D01*
G01X2956Y11296D01*
G01X3683Y11296D01*
G01X3683Y11911D01*
G37*

%LPD*%
G36*
G01X3363Y11189D02*
G01X3312Y11192D01*
G01X3236Y11185D01*
G01X3167Y11166D01*
G01X3106Y11134D01*
G01X3055Y11091D01*
G01X3013Y11039D01*
G01X2982Y10979D01*
G01X2963Y10911D01*
G01X2956Y10836D01*
G01X2956Y10417D01*
G01X3683Y10417D01*
G01X3683Y10836D01*
G01X3679Y10887D01*
G01X3670Y10934D01*
G01X3654Y10979D01*
G01X3633Y11020D01*
G01X3607Y11058D01*
G01X3576Y11091D01*
G01X3541Y11121D01*
G01X3502Y11146D01*
G01X3458Y11166D01*
G01X3412Y11180D01*
G01X3363Y11189D01*
G37*

%LPC*%
G36*
G01X3367Y11060D02*
G01X3317Y11065D01*
G01X3267Y11060D01*
G01X3222Y11048D01*
G01X3183Y11027D01*
G01X3149Y11000D01*
G01X3121Y10967D01*
G01X3100Y10928D01*
G01X3088Y10884D01*
G01X3083Y10836D01*
G01X3083Y10542D01*
G01X3556Y10542D01*
G01X3556Y10836D01*
G01X3551Y10884D01*
G01X3538Y10928D01*
G01X3516Y10967D01*
G01X3487Y11000D01*
G01X3452Y11027D01*
G01X3412Y11048D01*
G01X3367Y11060D01*
G37*

%LPD*%
G36*
G01X3683Y10326D02*
G01X3556Y10326D01*
G01X3556Y9836D01*
G01X2956Y9836D01*
G01X2956Y9709D01*
G01X3683Y9709D01*
G01X3683Y10326D01*
G37*

%LPD*%
G36*
G01X3363Y9604D02*
G01X3312Y9607D01*
G01X3236Y9600D01*
G01X3167Y9581D01*
G01X3106Y9550D01*
G01X3055Y9508D01*
G01X3013Y9456D01*
G01X2982Y9395D01*
G01X2963Y9327D01*
G01X2956Y9252D01*
G01X2956Y9074D01*
G01X2963Y9000D01*
G01X2981Y8933D01*
G01X3012Y8873D01*
G01X3054Y8821D01*
G01X3105Y8779D01*
G01X3166Y8747D01*
G01X3235Y8727D01*
G01X3312Y8721D01*
G01X3388Y8727D01*
G01X3458Y8747D01*
G01X3521Y8779D01*
G01X3576Y8821D01*
G01X3621Y8873D01*
G01X3654Y8933D01*
G01X3675Y9000D01*
G01X3683Y9074D01*
G01X3683Y9252D01*
G01X3679Y9302D01*
G01X3670Y9349D01*
G01X3654Y9394D01*
G01X3633Y9435D01*
G01X3607Y9473D01*
G01X3576Y9507D01*
G01X3541Y9536D01*
G01X3502Y9561D01*
G01X3458Y9581D01*
G01X3412Y9595D01*
G01X3363Y9604D01*
G37*

%LPC*%
G36*
G01X3367Y9476D02*
G01X3317Y9480D01*
G01X3267Y9476D01*
G01X3222Y9463D01*
G01X3183Y9443D01*
G01X3149Y9416D01*
G01X3121Y9382D01*
G01X3100Y9343D01*
G01X3088Y9299D01*
G01X3083Y9252D01*
G01X3083Y9074D01*
G01X3088Y9027D01*
G01X3100Y8984D01*
G01X3121Y8945D01*
G01X3149Y8912D01*
G01X3183Y8885D01*
G01X3222Y8865D01*
G01X3267Y8852D01*
G01X3317Y8848D01*
G01X3367Y8852D01*
G01X3412Y8864D01*
G01X3452Y8884D01*
G01X3487Y8911D01*
G01X3516Y8944D01*
G01X3538Y8983D01*
G01X3551Y9026D01*
G01X3556Y9074D01*
G01X3556Y9252D01*
G01X3551Y9299D01*
G01X3538Y9343D01*
G01X3516Y9382D01*
G01X3487Y9415D01*
G01X3452Y9443D01*
G01X3412Y9463D01*
G01X3367Y9476D01*
G37*

%LPD*%
G36*
G01X3510Y8628D02*
G01X3462Y8632D01*
G01X3404Y8623D01*
G01X3356Y8599D01*
G01X3321Y8563D01*
G01X3299Y8517D01*
G01X3280Y8556D01*
G01X3249Y8587D01*
G01X3204Y8608D01*
G01X3144Y8617D01*
G01X3062Y8600D01*
G01X3003Y8551D01*
G01X2968Y8477D01*
G01X2956Y8380D01*
G01X2956Y7849D01*
G01X3683Y7849D01*
G01X3683Y8396D01*
G01X3678Y8446D01*
G01X3667Y8493D01*
G01X3648Y8533D01*
G01X3623Y8567D01*
G01X3591Y8595D01*
G01X3553Y8615D01*
G01X3510Y8628D01*
G37*

%LPC*%
G36*
G01X3506Y8491D02*
G01X3462Y8502D01*
G01X3421Y8495D01*
G01X3392Y8473D01*
G01X3374Y8438D01*
G01X3368Y8390D01*
G01X3368Y8068D01*
G01X3258Y8068D01*
G01X3258Y8383D01*
G01X3254Y8430D01*
G01X3239Y8463D01*
G01X3212Y8483D01*
G01X3172Y8490D01*
G01X3126Y8478D01*
G01X3099Y8447D01*
G01X3086Y8399D01*
G01X3083Y8335D01*
G01X3083Y7976D01*
G01X3556Y7976D01*
G01X3556Y8345D01*
G01X3551Y8408D01*
G01X3535Y8457D01*
G01X3506Y8491D01*
G37*

%LPD*%
G36*
G01X3363Y7450D02*
G01X3312Y7453D01*
G01X3236Y7447D01*
G01X3167Y7427D01*
G01X3106Y7396D01*
G01X3055Y7355D01*
G01X3013Y7303D01*
G01X2982Y7242D01*
G01X2963Y7173D01*
G01X2956Y7098D01*
G01X2956Y6920D01*
G01X2963Y6846D01*
G01X2981Y6779D01*
G01X3012Y6719D01*
G01X3054Y6667D01*
G01X3105Y6625D01*
G01X3166Y6593D01*
G01X3235Y6573D01*
G01X3312Y6567D01*
G01X3388Y6573D01*
G01X3458Y6593D01*
G01X3521Y6625D01*
G01X3576Y6667D01*
G01X3621Y6719D01*
G01X3654Y6779D01*
G01X3675Y6846D01*
G01X3683Y6920D01*
G01X3683Y7098D01*
G01X3679Y7148D01*
G01X3670Y7195D01*
G01X3654Y7240D01*
G01X3633Y7281D01*
G01X3607Y7319D01*
G01X3576Y7353D01*
G01X3541Y7382D01*
G01X3502Y7407D01*
G01X3458Y7427D01*
G01X3412Y7441D01*
G01X3363Y7450D01*
G37*

%LPC*%
G36*
G01X3367Y7322D02*
G01X3317Y7326D01*
G01X3267Y7322D01*
G01X3222Y7309D01*
G01X3183Y7289D01*
G01X3149Y7262D01*
G01X3121Y7229D01*
G01X3100Y7190D01*
G01X3088Y7146D01*
G01X3083Y7098D01*
G01X3083Y6920D01*
G01X3088Y6873D01*
G01X3100Y6830D01*
G01X3121Y6791D01*
G01X3149Y6758D01*
G01X3183Y6731D01*
G01X3222Y6711D01*
G01X3267Y6698D01*
G01X3317Y6694D01*
G01X3367Y6698D01*
G01X3412Y6711D01*
G01X3452Y6731D01*
G01X3487Y6758D01*
G01X3516Y6791D01*
G01X3538Y6830D01*
G01X3551Y6873D01*
G01X3556Y6920D01*
G01X3556Y7098D01*
G01X3551Y7146D01*
G01X3538Y7190D01*
G01X3516Y7229D01*
G01X3487Y7262D01*
G01X3452Y7289D01*
G01X3412Y7309D01*
G01X3367Y7322D01*
G37*

%LPD*%
G36*
G01X3083Y6521D02*
G01X2956Y6521D01*
G01X2956Y5843D01*
G01X3083Y5843D01*
G01X3083Y6120D01*
G01X3683Y6120D01*
G01X3683Y6247D01*
G01X3083Y6247D01*
G01X3083Y6521D01*
G37*

%LPD*%

%LPD*%
G36*
G01X106784Y14281D02*
G01X106334Y14667D01*
G01X106334Y14507D01*
G01X106669Y14222D01*
G01X106334Y13938D01*
G01X106334Y13768D01*
G01X106784Y14154D01*
G01X107061Y14154D01*
G01X107061Y14281D01*
G01X106784Y14281D01*
G37*

%LPD*%
G36*
G01X107061Y13661D02*
G01X107061Y13841D01*
G01X106840Y13620D01*
G01X106803Y13684D01*
G01X106750Y13732D01*
G01X106682Y13762D01*
G01X106598Y13773D01*
G01X106540Y13768D01*
G01X106488Y13754D01*
G01X106443Y13733D01*
G01X106405Y13703D01*
G01X106375Y13664D01*
G01X106352Y13619D01*
G01X106339Y13567D01*
G01X106334Y13509D01*
G01X106334Y12985D01*
G01X107061Y12985D01*
G01X107061Y13112D01*
G01X106461Y13112D01*
G01X106461Y13509D01*
G01X106470Y13566D01*
G01X106496Y13610D01*
G01X106539Y13637D01*
G01X106601Y13646D01*
G01X106663Y13637D01*
G01X106708Y13611D01*
G01X106736Y13567D01*
G01X106746Y13509D01*
G01X106746Y13204D01*
G01X106857Y13204D01*
G01X106857Y13476D01*
G01X107061Y13661D01*
G37*

%LPD*%
G36*
G01X106746Y12848D02*
G01X106636Y12848D01*
G01X106636Y12444D01*
G01X106746Y12444D01*
G01X106746Y12848D01*
G37*

%LPD*%
G36*
G01X106461Y12876D02*
G01X106334Y12876D01*
G01X106334Y12226D01*
G01X107061Y12226D01*
G01X107061Y12876D01*
G01X106934Y12876D01*
G01X106934Y12353D01*
G01X106461Y12353D01*
G01X106461Y12876D01*
G37*

%LPD*%
G36*
G01X106461Y12142D02*
G01X106334Y12142D01*
G01X106334Y11464D01*
G01X106461Y11464D01*
G01X106461Y11741D01*
G01X107061Y11741D01*
G01X107061Y11868D01*
G01X106461Y11868D01*
G01X106461Y12142D01*
G37*

%LPD*%
G36*
G01X106461Y11390D02*
G01X106334Y11390D01*
G01X106334Y10712D01*
G01X106461Y10712D01*
G01X106461Y10986D01*
G01X107061Y10986D01*
G01X107061Y11113D01*
G01X106461Y11113D01*
G01X106461Y11390D01*
G37*

%LPD*%
G36*
G01X107061Y10654D02*
G01X107061Y10806D01*
G01X106365Y10387D01*
G01X106347Y10375D01*
G01X106335Y10361D01*
G01X106326Y10345D01*
G01X106324Y10326D01*
G01X106326Y10306D01*
G01X106335Y10289D01*
G01X106347Y10275D01*
G01X106365Y10262D01*
G01X107061Y9846D01*
G01X107061Y9991D01*
G01X106502Y10321D01*
G01X106773Y10483D01*
G01X106773Y10260D01*
G01X106878Y10199D01*
G01X106878Y10544D01*
G01X107061Y10654D01*
G37*

%LPD*%
G36*
G01X106888Y9837D02*
G01X106840Y9841D01*
G01X106782Y9832D01*
G01X106734Y9808D01*
G01X106699Y9772D01*
G01X106677Y9726D01*
G01X106658Y9765D01*
G01X106627Y9797D01*
G01X106582Y9820D01*
G01X106522Y9828D01*
G01X106440Y9811D01*
G01X106381Y9763D01*
G01X106346Y9689D01*
G01X106334Y9592D01*
G01X106334Y9058D01*
G01X107061Y9058D01*
G01X107061Y9607D01*
G01X107056Y9658D01*
G01X107045Y9704D01*
G01X107026Y9744D01*
G01X107001Y9777D01*
G01X106969Y9804D01*
G01X106931Y9824D01*
G01X106888Y9837D01*
G37*

%LPC*%
G36*
G01X106884Y9700D02*
G01X106840Y9711D01*
G01X106799Y9704D01*
G01X106770Y9683D01*
G01X106752Y9649D01*
G01X106746Y9602D01*
G01X106746Y9279D01*
G01X106636Y9279D01*
G01X106636Y9592D01*
G01X106632Y9640D01*
G01X106617Y9673D01*
G01X106590Y9692D01*
G01X106550Y9699D01*
G01X106504Y9687D01*
G01X106477Y9656D01*
G01X106464Y9608D01*
G01X106461Y9544D01*
G01X106461Y9185D01*
G01X106934Y9185D01*
G01X106934Y9554D01*
G01X106929Y9617D01*
G01X106913Y9667D01*
G01X106884Y9700D01*
G37*

%LPD*%
G54D62*
G01X42418Y17377D02*
G01X42418Y16899D01*
G01X42418Y17377D02*
G01X42623Y17377D01*
G01X42689Y17354D01*
G01X42712Y17331D01*
G01X42735Y17286D01*
G01X42735Y17240D01*
G01X42712Y17194D01*
G01X42689Y17171D01*
G01X42623Y17148D01*
G01X42418Y17148D01*
G01X42578Y17148D02*
G01X42735Y16899D01*
G01X43205Y17308D02*
G01X43159Y17354D01*
G01X43091Y17377D01*
G01X42999Y17377D01*
G01X42931Y17354D01*
G01X42885Y17308D01*
G01X42885Y17263D01*
G01X42908Y17217D01*
G01X42931Y17194D01*
G01X42976Y17171D01*
G01X43113Y17126D01*
G01X43159Y17103D01*
G01X43182Y17080D01*
G01X43205Y17034D01*
G01X43205Y16968D01*
G01X43159Y16922D01*
G01X43091Y16899D01*
G01X42999Y16899D01*
G01X42931Y16922D01*
G01X42885Y16968D01*
G01X43512Y17377D02*
G01X43512Y16899D01*
G01X43355Y17377D02*
G01X43672Y17377D01*
G01X43822Y17377D02*
G01X43822Y16899D01*
G01X43822Y17377D02*
G01X44028Y17377D01*
G01X44094Y17354D01*
G01X44117Y17331D01*
G01X44140Y17286D01*
G01X44140Y17240D01*
G01X44117Y17194D01*
G01X44094Y17171D01*
G01X44028Y17148D01*
G01X43822Y17148D02*
G01X44028Y17148D01*
G01X44094Y17126D01*
G01X44117Y17103D01*
G01X44140Y17057D01*
G01X44140Y16991D01*
G01X44117Y16945D01*
G01X44094Y16922D01*
G01X44028Y16899D01*
G01X43822Y16899D01*
G01X44450Y17377D02*
G01X44450Y16899D01*
G01X44289Y17377D02*
G01X44610Y17377D01*
G01X44759Y17377D02*
G01X44759Y16899D01*
G01X44759Y17377D02*
G01X45077Y16899D01*
G01X45077Y17377D02*
G01X45077Y16899D01*
G54D59*
G01X13052Y7218D02*
G01X14336Y6961D01*
G01X13566Y7732D02*
G01X13822Y6447D01*
G01X14029Y7829D02*
G01X13993Y7865D01*
G01X13955Y7974D01*
G01X13955Y8050D01*
G01X13993Y8159D01*
G01X14138Y8305D01*
G01X14248Y8342D01*
G01X14323Y8342D01*
G01X14433Y8305D01*
G01X14507Y8231D01*
G01X14544Y8121D01*
G01X14580Y7938D01*
G01X14579Y7204D01*
G01X15094Y7719D01*
G01X49367Y18632D02*
G01X49263Y18736D01*
G01X49108Y18787D01*
G01X48900Y18787D01*
G01X48745Y18736D01*
G01X48641Y18632D01*
G01X48641Y18528D01*
G01X48691Y18423D01*
G01X48745Y18370D01*
G01X48849Y18319D01*
G01X49161Y18215D01*
G01X49263Y18164D01*
G01X49316Y18111D01*
G01X49367Y18007D01*
G01X49367Y17852D01*
G01X49263Y17748D01*
G01X49108Y17697D01*
G01X48900Y17697D01*
G01X48745Y17748D01*
G01X48641Y17852D01*
G01X49710Y18787D02*
G01X49971Y17697D01*
G01X50231Y18787D02*
G01X49971Y17697D01*
G01X50231Y18787D02*
G01X50490Y17697D01*
G01X50749Y18787D02*
G01X50490Y17697D01*
G01X51092Y18787D02*
G01X51092Y17697D01*
G01X51800Y18787D02*
G01X51800Y17697D01*
G01X51435Y18787D02*
G01X52163Y18787D01*
G01X53286Y18528D02*
G01X53233Y18632D01*
G01X53129Y18736D01*
G01X53025Y18787D01*
G01X52819Y18787D01*
G01X52715Y18736D01*
G01X52611Y18632D01*
G01X52557Y18528D01*
G01X52506Y18370D01*
G01X52506Y18111D01*
G01X52557Y17956D01*
G01X52611Y17852D01*
G01X52715Y17748D01*
G01X52819Y17697D01*
G01X53025Y17697D01*
G01X53129Y17748D01*
G01X53233Y17852D01*
G01X53286Y17956D01*
G01X53629Y18787D02*
G01X53629Y17697D01*
G01X54356Y18787D02*
G01X54356Y17697D01*
G01X53629Y18269D02*
G01X54356Y18269D01*
G54D56*
G75*
G01X81623Y13281D02*
G03X81473Y13131I0J-150D01*
G01*
G75*
G01X81623Y12081D02*
G02X81473Y12231I0J150D01*
G01*
G75*
G01X83223Y13281D02*
G02X83373Y13131I0J-150D01*
G01*
G75*
G01X83223Y12081D02*
G03X83373Y12231I0J150D01*
G01*
G75*
G01X86906Y8779D02*
G03X87056Y8929I0J150D01*
G01*
G75*
G01X86906Y9979D02*
G02X87056Y9829I0J-150D01*
G01*
G75*
G01X85306Y8779D02*
G02X85156Y8929I0J150D01*
G01*
G75*
G01X85306Y9979D02*
G03X85156Y9829I0J-150D01*
G01*
G54D10*
G75*
G01X43314Y16145D02*
G02X43314Y18177I0J1016D01*
G01*
G75*
G01X44330Y18177D02*
G02X44330Y16145I0J-1016D01*
G01*
G54D56*
G75*
G01X12345Y4412D02*
G03X12345Y4199I106J-107D01*
G01*
G75*
G01X13194Y3563D02*
G02X12981Y3563I-106J106D01*
G01*
G75*
G01X13476Y5543D02*
G02X13689Y5543I106J-106D01*
G01*
G75*
G01X14325Y4694D02*
G03X14325Y4906I-106J106D01*
G01*
G75*
G01X12420Y6599D02*
G03X12420Y6812I-106J107D01*
G01*
G75*
G01X11571Y7448D02*
G02X11784Y7448I106J-106D01*
G01*
G75*
G01X11289Y5468D02*
G02X11076Y5468I-106J106D01*
G01*
G75*
G01X10440Y6317D02*
G03X10440Y6105I106J-106D01*
G01*
G75*
G01X90894Y15440D02*
G03X90744Y15290I0J-150D01*
G01*
G75*
G01X90894Y14240D02*
G02X90744Y14390I0J150D01*
G01*
G75*
G01X92494Y15440D02*
G02X92644Y15290I0J-150D01*
G01*
G75*
G01X92494Y14240D02*
G03X92644Y14390I0J150D01*
G01*
G75*
G01X91021Y18361D02*
G03X90871Y18211I0J-150D01*
G01*
G75*
G01X91021Y17161D02*
G02X90871Y17311I0J150D01*
G01*
G75*
G01X92621Y18361D02*
G02X92771Y18211I0J-150D01*
G01*
G75*
G01X92621Y17161D02*
G03X92771Y17311I0J150D01*
G01*
G54D57*
G75*
G01X70690Y19868D02*
G03X70690Y19870I125J1D01*
G01*
G54D56*
G75*
G01X36738Y14675D02*
G03X36888Y14525I150J0D01*
G01*
G75*
G01X37938Y14675D02*
G02X37788Y14525I-150J0D01*
G01*
G75*
G01X36738Y16275D02*
G02X36888Y16425I150J0D01*
G01*
G75*
G01X37938Y16275D02*
G03X37788Y16425I-150J0D01*
G01*
G75*
G01X7458Y13481D02*
G03X7308Y13631I-150J0D01*
G01*
G75*
G01X6258Y13481D02*
G02X6408Y13631I150J0D01*
G01*
G75*
G01X7458Y11881D02*
G02X7308Y11731I-150J0D01*
G01*
G75*
G01X6258Y11881D02*
G03X6408Y11731I150J0D01*
G01*
G75*
G01X38519Y18177D02*
G03X38669Y18327I0J150D01*
G01*
G75*
G01X38519Y19377D02*
G02X38669Y19227I0J-150D01*
G01*
G75*
G01X36919Y18177D02*
G02X36769Y18327I0J150D01*
G01*
G75*
G01X36919Y19377D02*
G03X36769Y19227I0J-150D01*
G01*
G75*
G01X38824Y18107D02*
G03X38674Y17957I0J-150D01*
G01*
G75*
G01X38824Y16907D02*
G02X38674Y17057I0J150D01*
G01*
G75*
G01X40424Y18107D02*
G02X40574Y17957I0J-150D01*
G01*
G75*
G01X40424Y16907D02*
G03X40574Y17057I0J150D01*
G01*
G54D58*
G75*
G01X95250Y10140D02*
G02X94806Y10299I-205J127D01*
G01*
G75*
G01X95250Y10141D02*
G02X95695Y10045I216J-76D01*
G01*
G54D56*
G75*
G01X63665Y15637D02*
G03X63815Y15787I0J150D01*
G01*
G75*
G01X63665Y16837D02*
G02X63815Y16687I0J-150D01*
G01*
G75*
G01X62065Y15637D02*
G02X61915Y15787I0J150D01*
G01*
G75*
G01X62065Y16837D02*
G03X61915Y16687I0J-150D01*
G01*
G75*
G01X19593Y4515D02*
G03X19743Y4365I150J0D01*
G01*
G75*
G01X20793Y4515D02*
G02X20643Y4365I-150J0D01*
G01*
G75*
G01X19593Y6115D02*
G02X19743Y6265I150J0D01*
G01*
G75*
G01X20793Y6115D02*
G03X20643Y6265I-150J0D01*
G01*
G75*
G01X63462Y21663D02*
G03X63312Y21513I0J-150D01*
G01*
G75*
G01X63462Y20463D02*
G02X63312Y20613I0J150D01*
G01*
G75*
G01X65062Y21663D02*
G02X65212Y21513I0J-150D01*
G01*
G75*
G01X65062Y20463D02*
G03X65212Y20613I0J150D01*
G01*
G75*
G01X98714Y4388D02*
G03X98864Y4238I150J0D01*
G01*
G75*
G01X99914Y4388D02*
G02X99764Y4238I-150J0D01*
G01*
G75*
G01X98714Y5988D02*
G02X98864Y6138I150J0D01*
G01*
G75*
G01X99914Y5988D02*
G03X99764Y6138I-150J0D01*
G01*
G75*
G01X23457Y17853D02*
G03X23307Y17703I0J-150D01*
G01*
G75*
G01X23457Y16653D02*
G02X23307Y16803I0J150D01*
G01*
G75*
G01X25057Y17853D02*
G02X25207Y17703I0J-150D01*
G01*
G75*
G01X25057Y16653D02*
G03X25207Y16803I0J150D01*
G01*
G75*
G01X17237Y19069D02*
G03X17087Y19219I-150J0D01*
G01*
G75*
G01X16037Y19069D02*
G02X16187Y19219I150J0D01*
G01*
G75*
G01X17237Y17469D02*
G02X17087Y17319I-150J0D01*
G01*
G75*
G01X16037Y17469D02*
G03X16187Y17319I150J0D01*
G01*
G75*
G01X15713Y19069D02*
G03X15563Y19219I-150J0D01*
G01*
G75*
G01X14513Y19069D02*
G02X14663Y19219I150J0D01*
G01*
G75*
G01X15713Y17469D02*
G02X15563Y17319I-150J0D01*
G01*
G75*
G01X14513Y17469D02*
G03X14663Y17319I150J0D01*
G01*
G54D60*
G75*
G01X36831Y18901D02*
G02X36829Y18901I-1J-124D01*
G01*
G54D12*
G75*
G01X15459Y16207D02*
G03X15459Y16204I-150J-2D01*
G01*
G54D56*
G75*
G01X65113Y16899D02*
G03X65113Y16901I125J1D01*
G01*
G54D10*
G75*
G01X62192Y17126D02*
G02X63284Y17151I546J2D01*
G01*
G54D56*
G75*
G01X10146Y14306D02*
G03X9933Y14306I-107J-106D01*
G01*
G75*
G01X9297Y13457D02*
G02X9297Y13670I106J106D01*
G01*
G75*
G01X11277Y13175D02*
G02X11277Y12962I-106J-106D01*
G01*
G75*
G01X10428Y12326D02*
G03X10640Y12326I106J106D01*
G01*
G54D10*
G75*
G01X96310Y17835D02*
G03X96310Y17835I-127J0D01*
G01*
G54D57*
G75*
G01X93103Y11014D02*
G03X93103Y11014I-100J0D01*
G01*
G54D59*
G75*
G01X83775Y10217D02*
G03X83775Y10217I-57J0D01*
G01*
G54D57*
G75*
G01X1597Y6455D02*
G03X1597Y6455I-200J0D01*
G01*
M00*
M02*
