;Layer: Drill NPTH
;EasyEDA v6.3.43, 2020-06-04T01:39:48+01:00
;c5e8e4d559e34370b9c9d94393fceecd,c23c5ad5fcdd482d9714491510f6a4f3,10
;Gerber Generator version 0.2
M48
METRIC,LZ,000.000
;Holesize 1 = 0.322 METRIC
T01C0.322
;Holesize 2 = 0.362 METRIC
T02C0.362
;Holesize 3 = 0.405 METRIC
T03C0.405
;Holesize 4 = 0.456 METRIC
T04C0.456
;Holesize 5 = 0.512 METRIC
T05C0.512
;Holesize 6 = 0.574 METRIC
T06C0.574
;Holesize 7 = 0.645 METRIC
T07C0.645
;Holesize 8 = 0.723 METRIC
T08C0.723
;Holesize 9 = 0.812 METRIC
T09C0.812
;Holesize 10 = 0.912 METRIC
T10C0.912
;Holesize 11 = 1.021 METRIC
T11C1.021
;Holesize 12 = 1.151 METRIC
T12C1.151
;Holesize 13 = 1.290 METRIC
T13C1.290
;Holesize 14 = 1.450 METRIC
T14C1.450
;Holesize 15 = 1.631 METRIC
T15C1.631
;Holesize 16 = 1.830 METRIC
T16C1.830
;Holesize 17 = 2.050 METRIC
T17C2.050
;Holesize 18 = 2.301 METRIC
T18C2.301
;Holesize 19 = 2.590 METRIC
T19C2.590
;Holesize 20 = 2.910 METRIC
T20C2.910
;Holesize 21 = 3.260 METRIC
T21C3.260
%
G05
G90
T01
X+105766Y+018490
T02
X+107290Y+018469
T03
X+108814Y+018447
T04
X+110338Y+018421
T05
X+111862Y+018393
T06
X+113386Y+018363
T07
X+114910Y+018327
T08
X+116434Y+018289
T09
X+118002Y+018243
T10
X+119663Y+018193
T11
X+121428Y+018139
T12
X+123313Y+018073
T13
X+125335Y+018005
T14
X+127504Y+017923
T15
X+129843Y+017834
T16
X+132373Y+017735
T17
X+135114Y+017624
T18
X+138088Y+017499
T19
X+141334Y+017354
T20
X+144885Y+017194
T21
X+148769Y+017019
M30
